<svg width="580" height="485" viewBox="0 0 580 485" fill="none" xmlns="http://www.w3.org/2000/svg">
<line x1="48.25" y1="359.054" x2="48.25" y2="439.863" stroke="#D1F960" stroke-width="0.5"/>
<line x1="128.81" y1="440.114" x2="48.0001" y2="440.114" stroke="#D1F960" stroke-width="0.5"/>
<line x1="128.81" y1="41.25" x2="48.0001" y2="41.25" stroke="#D1F960" stroke-width="0.5"/>
<line x1="47.75" y1="121.81" x2="47.75" y2="41.0001" stroke="#D1F960" stroke-width="0.5"/>
<circle cx="207.128" cy="133.128" r="45.6284" stroke="#D1F960"/>
<mask id="mask0_1_13229" style="mask-type:alpha" maskUnits="userSpaceOnUse" x="161" y="87" width="92" height="92">
<circle cx="207.128" cy="133.128" r="45.2149" fill="#D9D9D9"/>
</mask>
<g mask="url(#mask0_1_13229)">
<circle cx="0.896903" cy="0.896903" r="0.896903" transform="matrix(4.37114e-08 1 1 -4.37114e-08 171.395 132.625)" fill="#4A49A3"/>
<circle cx="0.896903" cy="0.896903" r="0.896903" transform="matrix(4.37114e-08 1 1 -4.37114e-08 191.835 132.625)" fill="#4A49A3"/>
<circle cx="0.896903" cy="0.896903" r="0.896903" transform="matrix(4.37114e-08 1 1 -4.37114e-08 212.279 132.625)" fill="#4A49A3"/>
<circle cx="0.896903" cy="0.896903" r="0.896903" transform="matrix(4.37114e-08 1 1 -4.37114e-08 232.722 132.625)" fill="#4A49A3"/>
<circle cx="0.896903" cy="0.896903" r="0.896903" transform="matrix(4.37114e-08 1 1 -4.37114e-08 161.175 132.625)" fill="#4A49A3"/>
<circle cx="0.896903" cy="0.896903" r="0.896903" transform="matrix(4.37114e-08 1 1 -4.37114e-08 181.616 132.625)" fill="#4A49A3"/>
<circle cx="0.896903" cy="0.896903" r="0.896903" transform="matrix(4.37114e-08 1 1 -4.37114e-08 202.058 132.625)" fill="#4A49A3"/>
<circle cx="0.896903" cy="0.896903" r="0.896903" transform="matrix(4.37114e-08 1 1 -4.37114e-08 222.499 132.625)" fill="#4A49A3"/>
<circle cx="0.896903" cy="0.896903" r="0.896903" transform="matrix(4.37114e-08 1 1 -4.37114e-08 242.942 132.625)" fill="#4A49A3"/>
<circle cx="0.896903" cy="0.896903" r="0.896903" transform="matrix(4.37114e-08 1 1 -4.37114e-08 171.395 142.845)" fill="#4A49A3"/>
<circle cx="0.896903" cy="0.896903" r="0.896903" transform="matrix(4.37114e-08 1 1 -4.37114e-08 191.835 142.845)" fill="#4A49A3"/>
<circle cx="0.896903" cy="0.896903" r="0.896903" transform="matrix(4.37114e-08 1 1 -4.37114e-08 212.279 142.845)" fill="#4A49A3"/>
<circle cx="0.896903" cy="0.896903" r="0.896903" transform="matrix(4.37114e-08 1 1 -4.37114e-08 232.722 142.845)" fill="#4A49A3"/>
<circle cx="0.896903" cy="0.896903" r="0.896903" transform="matrix(4.37114e-08 1 1 -4.37114e-08 161.172 142.845)" fill="#4A49A3"/>
<circle cx="0.896903" cy="0.896903" r="0.896903" transform="matrix(4.37114e-08 1 1 -4.37114e-08 181.616 142.845)" fill="#4A49A3"/>
<circle cx="0.896903" cy="0.896903" r="0.896903" transform="matrix(4.37114e-08 1 1 -4.37114e-08 202.058 142.845)" fill="#4A49A3"/>
<circle cx="0.896903" cy="0.896903" r="0.896903" transform="matrix(4.37114e-08 1 1 -4.37114e-08 222.499 142.845)" fill="#4A49A3"/>
<circle cx="0.896903" cy="0.896903" r="0.896903" transform="matrix(4.37114e-08 1 1 -4.37114e-08 242.942 142.845)" fill="#4A49A3"/>
<circle cx="0.896903" cy="0.896903" r="0.896903" transform="matrix(4.37114e-08 1 1 -4.37114e-08 171.395 91.7407)" fill="#4A49A3"/>
<circle cx="0.896903" cy="0.896903" r="0.896903" transform="matrix(4.37114e-08 1 1 -4.37114e-08 191.835 91.7407)" fill="#4A49A3"/>
<circle cx="0.896903" cy="0.896903" r="0.896903" transform="matrix(4.37114e-08 1 1 -4.37114e-08 212.279 91.7407)" fill="#4A49A3"/>
<circle cx="0.896903" cy="0.896903" r="0.896903" transform="matrix(4.37114e-08 1 1 -4.37114e-08 232.722 91.7407)" fill="#4A49A3"/>
<circle cx="0.896903" cy="0.896903" r="0.896903" transform="matrix(4.37114e-08 1 1 -4.37114e-08 161.172 91.7407)" fill="#4A49A3"/>
<circle cx="0.896903" cy="0.896903" r="0.896903" transform="matrix(4.37114e-08 1 1 -4.37114e-08 181.616 91.7407)" fill="#4A49A3"/>
<circle cx="0.896903" cy="0.896903" r="0.896903" transform="matrix(4.37114e-08 1 1 -4.37114e-08 202.058 91.7407)" fill="#4A49A3"/>
<circle cx="0.896903" cy="0.896903" r="0.896903" transform="matrix(4.37114e-08 1 1 -4.37114e-08 222.499 91.7407)" fill="#4A49A3"/>
<circle cx="0.896903" cy="0.896903" r="0.896903" transform="matrix(4.37114e-08 1 1 -4.37114e-08 242.942 91.7407)" fill="#4A49A3"/>
<circle cx="0.896903" cy="0.896903" r="0.896903" transform="matrix(4.37114e-08 1 1 -4.37114e-08 171.395 153.066)" fill="#4A49A3"/>
<circle cx="0.896903" cy="0.896903" r="0.896903" transform="matrix(4.37114e-08 1 1 -4.37114e-08 191.835 153.066)" fill="#4A49A3"/>
<circle cx="0.896903" cy="0.896903" r="0.896903" transform="matrix(4.37114e-08 1 1 -4.37114e-08 212.279 153.066)" fill="#4A49A3"/>
<circle cx="0.896903" cy="0.896903" r="0.896903" transform="matrix(4.37114e-08 1 1 -4.37114e-08 232.722 153.066)" fill="#4A49A3"/>
<circle cx="0.896903" cy="0.896903" r="0.896903" transform="matrix(4.37114e-08 1 1 -4.37114e-08 161.175 153.066)" fill="#4A49A3"/>
<circle cx="0.896903" cy="0.896903" r="0.896903" transform="matrix(4.37114e-08 1 1 -4.37114e-08 181.616 153.066)" fill="#4A49A3"/>
<circle cx="0.896903" cy="0.896903" r="0.896903" transform="matrix(4.37114e-08 1 1 -4.37114e-08 202.058 153.066)" fill="#4A49A3"/>
<circle cx="0.896903" cy="0.896903" r="0.896903" transform="matrix(4.37114e-08 1 1 -4.37114e-08 222.499 153.066)" fill="#4A49A3"/>
<circle cx="0.896903" cy="0.896903" r="0.896903" transform="matrix(4.37114e-08 1 1 -4.37114e-08 242.942 153.066)" fill="#4A49A3"/>
<circle cx="0.896903" cy="0.896903" r="0.896903" transform="matrix(4.37114e-08 1 1 -4.37114e-08 171.395 101.961)" fill="#4A49A3"/>
<circle cx="0.896903" cy="0.896903" r="0.896903" transform="matrix(4.37114e-08 1 1 -4.37114e-08 191.835 101.961)" fill="#4A49A3"/>
<circle cx="0.896903" cy="0.896903" r="0.896903" transform="matrix(4.37114e-08 1 1 -4.37114e-08 212.279 101.961)" fill="#4A49A3"/>
<circle cx="0.896903" cy="0.896903" r="0.896903" transform="matrix(4.37114e-08 1 1 -4.37114e-08 232.722 101.961)" fill="#4A49A3"/>
<circle cx="0.896903" cy="0.896903" r="0.896903" transform="matrix(4.37114e-08 1 1 -4.37114e-08 161.175 101.961)" fill="#4A49A3"/>
<circle cx="0.896903" cy="0.896903" r="0.896903" transform="matrix(4.37114e-08 1 1 -4.37114e-08 181.616 101.961)" fill="#4A49A3"/>
<circle cx="0.896903" cy="0.896903" r="0.896903" transform="matrix(4.37114e-08 1 1 -4.37114e-08 202.058 101.961)" fill="#4A49A3"/>
<circle cx="0.896903" cy="0.896903" r="0.896903" transform="matrix(4.37114e-08 1 1 -4.37114e-08 222.499 101.961)" fill="#4A49A3"/>
<circle cx="0.896903" cy="0.896903" r="0.896903" transform="matrix(4.37114e-08 1 1 -4.37114e-08 242.942 101.961)" fill="#4A49A3"/>
<circle cx="0.896903" cy="0.896903" r="0.896903" transform="matrix(4.37114e-08 1 1 -4.37114e-08 171.395 163.288)" fill="#4A49A3"/>
<circle cx="0.896903" cy="0.896903" r="0.896903" transform="matrix(4.37114e-08 1 1 -4.37114e-08 191.835 163.288)" fill="#4A49A3"/>
<circle cx="0.896903" cy="0.896903" r="0.896903" transform="matrix(4.37114e-08 1 1 -4.37114e-08 212.279 163.288)" fill="#4A49A3"/>
<circle cx="0.896903" cy="0.896903" r="0.896903" transform="matrix(4.37114e-08 1 1 -4.37114e-08 232.722 163.288)" fill="#4A49A3"/>
<circle cx="0.896903" cy="0.896903" r="0.896903" transform="matrix(4.37114e-08 1 1 -4.37114e-08 161.172 163.288)" fill="#4A49A3"/>
<circle cx="0.896903" cy="0.896903" r="0.896903" transform="matrix(4.37114e-08 1 1 -4.37114e-08 181.616 163.288)" fill="#4A49A3"/>
<circle cx="0.896903" cy="0.896903" r="0.896903" transform="matrix(4.37114e-08 1 1 -4.37114e-08 202.058 163.288)" fill="#4A49A3"/>
<circle cx="0.896903" cy="0.896903" r="0.896903" transform="matrix(4.37114e-08 1 1 -4.37114e-08 222.499 163.288)" fill="#4A49A3"/>
<circle cx="0.896903" cy="0.896903" r="0.896903" transform="matrix(4.37114e-08 1 1 -4.37114e-08 242.942 163.288)" fill="#4A49A3"/>
<circle cx="0.896903" cy="0.896903" r="0.896903" transform="matrix(4.37114e-08 1 1 -4.37114e-08 171.395 112.181)" fill="#4A49A3"/>
<circle cx="0.896903" cy="0.896903" r="0.896903" transform="matrix(4.37114e-08 1 1 -4.37114e-08 191.835 112.181)" fill="#4A49A3"/>
<circle cx="0.896903" cy="0.896903" r="0.896903" transform="matrix(4.37114e-08 1 1 -4.37114e-08 212.279 112.181)" fill="#4A49A3"/>
<circle cx="0.896903" cy="0.896903" r="0.896903" transform="matrix(4.37114e-08 1 1 -4.37114e-08 232.722 112.181)" fill="#4A49A3"/>
<circle cx="0.896903" cy="0.896903" r="0.896903" transform="matrix(4.37114e-08 1 1 -4.37114e-08 161.172 112.181)" fill="#4A49A3"/>
<circle cx="0.896903" cy="0.896903" r="0.896903" transform="matrix(4.37114e-08 1 1 -4.37114e-08 181.616 112.181)" fill="#4A49A3"/>
<circle cx="0.896903" cy="0.896903" r="0.896903" transform="matrix(4.37114e-08 1 1 -4.37114e-08 202.058 112.181)" fill="#4A49A3"/>
<circle cx="0.896903" cy="0.896903" r="0.896903" transform="matrix(4.37114e-08 1 1 -4.37114e-08 222.499 112.181)" fill="#4A49A3"/>
<circle cx="0.896903" cy="0.896903" r="0.896903" transform="matrix(4.37114e-08 1 1 -4.37114e-08 242.942 112.181)" fill="#4A49A3"/>
<circle cx="0.896903" cy="0.896903" r="0.896903" transform="matrix(4.37114e-08 1 1 -4.37114e-08 171.395 173.509)" fill="#4A49A3"/>
<circle cx="0.896903" cy="0.896903" r="0.896903" transform="matrix(4.37114e-08 1 1 -4.37114e-08 191.835 173.509)" fill="#4A49A3"/>
<circle cx="0.896903" cy="0.896903" r="0.896903" transform="matrix(4.37114e-08 1 1 -4.37114e-08 212.279 173.509)" fill="#4A49A3"/>
<circle cx="0.896903" cy="0.896903" r="0.896903" transform="matrix(4.37114e-08 1 1 -4.37114e-08 232.722 173.509)" fill="#4A49A3"/>
<circle cx="0.896903" cy="0.896903" r="0.896903" transform="matrix(4.37114e-08 1 1 -4.37114e-08 161.175 173.509)" fill="#4A49A3"/>
<circle cx="0.896903" cy="0.896903" r="0.896903" transform="matrix(4.37114e-08 1 1 -4.37114e-08 181.616 173.509)" fill="#4A49A3"/>
<circle cx="0.896903" cy="0.896903" r="0.896903" transform="matrix(4.37114e-08 1 1 -4.37114e-08 202.058 173.509)" fill="#4A49A3"/>
<circle cx="0.896903" cy="0.896903" r="0.896903" transform="matrix(4.37114e-08 1 1 -4.37114e-08 222.499 173.509)" fill="#4A49A3"/>
<circle cx="0.896903" cy="0.896903" r="0.896903" transform="matrix(4.37114e-08 1 1 -4.37114e-08 242.942 173.509)" fill="#4A49A3"/>
<circle cx="0.896903" cy="0.896903" r="0.896903" transform="matrix(4.37114e-08 1 1 -4.37114e-08 171.395 122.403)" fill="#4A49A3"/>
<circle cx="0.896903" cy="0.896903" r="0.896903" transform="matrix(4.37114e-08 1 1 -4.37114e-08 191.835 122.403)" fill="#4A49A3"/>
<circle cx="0.896903" cy="0.896903" r="0.896903" transform="matrix(4.37114e-08 1 1 -4.37114e-08 212.279 122.403)" fill="#4A49A3"/>
<circle cx="0.896903" cy="0.896903" r="0.896903" transform="matrix(4.37114e-08 1 1 -4.37114e-08 232.722 122.403)" fill="#4A49A3"/>
<circle cx="0.896903" cy="0.896903" r="0.896903" transform="matrix(4.37114e-08 1 1 -4.37114e-08 161.175 122.403)" fill="#4A49A3"/>
<circle cx="0.896903" cy="0.896903" r="0.896903" transform="matrix(4.37114e-08 1 1 -4.37114e-08 181.616 122.403)" fill="#4A49A3"/>
<circle cx="0.896903" cy="0.896903" r="0.896903" transform="matrix(4.37114e-08 1 1 -4.37114e-08 202.058 122.403)" fill="#4A49A3"/>
<circle cx="0.896903" cy="0.896903" r="0.896903" transform="matrix(4.37114e-08 1 1 -4.37114e-08 222.499 122.403)" fill="#4A49A3"/>
<circle cx="0.896903" cy="0.896903" r="0.896903" transform="matrix(4.37114e-08 1 1 -4.37114e-08 242.942 122.403)" fill="#4A49A3"/>
<circle cx="0.896903" cy="0.896903" r="0.896903" transform="matrix(4.37114e-08 1 1 -4.37114e-08 251.946 132.625)" fill="#4A49A3"/>
<circle cx="0.896903" cy="0.896903" r="0.896903" transform="matrix(4.37114e-08 1 1 -4.37114e-08 251.946 142.844)" fill="#4A49A3"/>
<circle cx="0.896903" cy="0.896903" r="0.896903" transform="matrix(4.37114e-08 1 1 -4.37114e-08 251.946 91.7405)" fill="#4A49A3"/>
<circle cx="0.896903" cy="0.896903" r="0.896903" transform="matrix(4.37114e-08 1 1 -4.37114e-08 251.946 153.067)" fill="#4A49A3"/>
<circle cx="0.896903" cy="0.896903" r="0.896903" transform="matrix(4.37114e-08 1 1 -4.37114e-08 251.946 101.961)" fill="#4A49A3"/>
<circle cx="0.896903" cy="0.896903" r="0.896903" transform="matrix(4.37114e-08 1 1 -4.37114e-08 251.946 163.287)" fill="#4A49A3"/>
<circle cx="0.896903" cy="0.896903" r="0.896903" transform="matrix(4.37114e-08 1 1 -4.37114e-08 251.946 112.181)" fill="#4A49A3"/>
<circle cx="0.896903" cy="0.896903" r="0.896903" transform="matrix(4.37114e-08 1 1 -4.37114e-08 251.946 173.509)" fill="#4A49A3"/>
<circle cx="0.896903" cy="0.896903" r="0.896903" transform="matrix(4.37114e-08 1 1 -4.37114e-08 251.946 122.403)" fill="#4A49A3"/>
</g>
<circle cx="207.128" cy="240" r="45.6284" stroke="#D1F960"/>
<mask id="mask1_1_13229" style="mask-type:alpha" maskUnits="userSpaceOnUse" x="161" y="194" width="92" height="92">
<circle cx="207.128" cy="240" r="45.2149" fill="#D9D9D9"/>
</mask>
<g mask="url(#mask1_1_13229)">
<circle cx="0.896903" cy="0.896903" r="0.896903" transform="matrix(4.37114e-08 1 1 -4.37114e-08 171.395 239.497)" fill="#4A49A3"/>
<circle cx="0.896903" cy="0.896903" r="0.896903" transform="matrix(4.37114e-08 1 1 -4.37114e-08 191.835 239.497)" fill="#4A49A3"/>
<circle cx="0.896903" cy="0.896903" r="0.896903" transform="matrix(4.37114e-08 1 1 -4.37114e-08 212.279 239.497)" fill="#4A49A3"/>
<circle cx="0.896903" cy="0.896903" r="0.896903" transform="matrix(4.37114e-08 1 1 -4.37114e-08 232.722 239.497)" fill="#4A49A3"/>
<circle cx="0.896903" cy="0.896903" r="0.896903" transform="matrix(4.37114e-08 1 1 -4.37114e-08 161.175 239.497)" fill="#4A49A3"/>
<circle cx="0.896903" cy="0.896903" r="0.896903" transform="matrix(4.37114e-08 1 1 -4.37114e-08 181.616 239.497)" fill="#4A49A3"/>
<circle cx="0.896903" cy="0.896903" r="0.896903" transform="matrix(4.37114e-08 1 1 -4.37114e-08 202.058 239.497)" fill="#4A49A3"/>
<circle cx="0.896903" cy="0.896903" r="0.896903" transform="matrix(4.37114e-08 1 1 -4.37114e-08 222.499 239.497)" fill="#4A49A3"/>
<circle cx="0.896903" cy="0.896903" r="0.896903" transform="matrix(4.37114e-08 1 1 -4.37114e-08 242.942 239.497)" fill="#4A49A3"/>
<circle cx="0.896903" cy="0.896903" r="0.896903" transform="matrix(4.37114e-08 1 1 -4.37114e-08 171.395 249.717)" fill="#4A49A3"/>
<circle cx="0.896903" cy="0.896903" r="0.896903" transform="matrix(4.37114e-08 1 1 -4.37114e-08 191.835 249.717)" fill="#4A49A3"/>
<circle cx="0.896903" cy="0.896903" r="0.896903" transform="matrix(4.37114e-08 1 1 -4.37114e-08 212.279 249.717)" fill="#4A49A3"/>
<circle cx="0.896903" cy="0.896903" r="0.896903" transform="matrix(4.37114e-08 1 1 -4.37114e-08 232.722 249.717)" fill="#4A49A3"/>
<circle cx="0.896903" cy="0.896903" r="0.896903" transform="matrix(4.37114e-08 1 1 -4.37114e-08 161.172 249.717)" fill="#4A49A3"/>
<circle cx="0.896903" cy="0.896903" r="0.896903" transform="matrix(4.37114e-08 1 1 -4.37114e-08 181.616 249.717)" fill="#4A49A3"/>
<circle cx="0.896903" cy="0.896903" r="0.896903" transform="matrix(4.37114e-08 1 1 -4.37114e-08 202.058 249.717)" fill="#4A49A3"/>
<circle cx="0.896903" cy="0.896903" r="0.896903" transform="matrix(4.37114e-08 1 1 -4.37114e-08 222.499 249.717)" fill="#4A49A3"/>
<circle cx="0.896903" cy="0.896903" r="0.896903" transform="matrix(4.37114e-08 1 1 -4.37114e-08 242.942 249.717)" fill="#4A49A3"/>
<circle cx="0.896903" cy="0.896903" r="0.896903" transform="matrix(4.37114e-08 1 1 -4.37114e-08 171.395 198.613)" fill="#4A49A3"/>
<circle cx="0.896903" cy="0.896903" r="0.896903" transform="matrix(4.37114e-08 1 1 -4.37114e-08 191.835 198.613)" fill="#4A49A3"/>
<circle cx="0.896903" cy="0.896903" r="0.896903" transform="matrix(4.37114e-08 1 1 -4.37114e-08 212.279 198.613)" fill="#4A49A3"/>
<circle cx="0.896903" cy="0.896903" r="0.896903" transform="matrix(4.37114e-08 1 1 -4.37114e-08 232.722 198.613)" fill="#4A49A3"/>
<circle cx="0.896903" cy="0.896903" r="0.896903" transform="matrix(4.37114e-08 1 1 -4.37114e-08 161.172 198.613)" fill="#4A49A3"/>
<circle cx="0.896903" cy="0.896903" r="0.896903" transform="matrix(4.37114e-08 1 1 -4.37114e-08 181.616 198.613)" fill="#4A49A3"/>
<circle cx="0.896903" cy="0.896903" r="0.896903" transform="matrix(4.37114e-08 1 1 -4.37114e-08 202.058 198.613)" fill="#4A49A3"/>
<circle cx="0.896903" cy="0.896903" r="0.896903" transform="matrix(4.37114e-08 1 1 -4.37114e-08 222.499 198.613)" fill="#4A49A3"/>
<circle cx="0.896903" cy="0.896903" r="0.896903" transform="matrix(4.37114e-08 1 1 -4.37114e-08 242.942 198.613)" fill="#4A49A3"/>
<circle cx="0.896903" cy="0.896903" r="0.896903" transform="matrix(4.37114e-08 1 1 -4.37114e-08 171.395 259.938)" fill="#4A49A3"/>
<circle cx="0.896903" cy="0.896903" r="0.896903" transform="matrix(4.37114e-08 1 1 -4.37114e-08 191.835 259.938)" fill="#4A49A3"/>
<circle cx="0.896903" cy="0.896903" r="0.896903" transform="matrix(4.37114e-08 1 1 -4.37114e-08 212.279 259.938)" fill="#4A49A3"/>
<circle cx="0.896903" cy="0.896903" r="0.896903" transform="matrix(4.37114e-08 1 1 -4.37114e-08 232.722 259.938)" fill="#4A49A3"/>
<circle cx="0.896903" cy="0.896903" r="0.896903" transform="matrix(4.37114e-08 1 1 -4.37114e-08 161.175 259.938)" fill="#4A49A3"/>
<circle cx="0.896903" cy="0.896903" r="0.896903" transform="matrix(4.37114e-08 1 1 -4.37114e-08 181.616 259.938)" fill="#4A49A3"/>
<circle cx="0.896903" cy="0.896903" r="0.896903" transform="matrix(4.37114e-08 1 1 -4.37114e-08 202.058 259.938)" fill="#4A49A3"/>
<circle cx="0.896903" cy="0.896903" r="0.896903" transform="matrix(4.37114e-08 1 1 -4.37114e-08 222.499 259.938)" fill="#4A49A3"/>
<circle cx="0.896903" cy="0.896903" r="0.896903" transform="matrix(4.37114e-08 1 1 -4.37114e-08 242.942 259.938)" fill="#4A49A3"/>
<circle cx="0.896903" cy="0.896903" r="0.896903" transform="matrix(4.37114e-08 1 1 -4.37114e-08 171.395 208.833)" fill="#4A49A3"/>
<circle cx="0.896903" cy="0.896903" r="0.896903" transform="matrix(4.37114e-08 1 1 -4.37114e-08 191.835 208.833)" fill="#4A49A3"/>
<circle cx="0.896903" cy="0.896903" r="0.896903" transform="matrix(4.37114e-08 1 1 -4.37114e-08 212.279 208.833)" fill="#4A49A3"/>
<circle cx="0.896903" cy="0.896903" r="0.896903" transform="matrix(4.37114e-08 1 1 -4.37114e-08 232.722 208.833)" fill="#4A49A3"/>
<circle cx="0.896903" cy="0.896903" r="0.896903" transform="matrix(4.37114e-08 1 1 -4.37114e-08 161.175 208.833)" fill="#4A49A3"/>
<circle cx="0.896903" cy="0.896903" r="0.896903" transform="matrix(4.37114e-08 1 1 -4.37114e-08 181.616 208.833)" fill="#4A49A3"/>
<circle cx="0.896903" cy="0.896903" r="0.896903" transform="matrix(4.37114e-08 1 1 -4.37114e-08 202.058 208.833)" fill="#4A49A3"/>
<circle cx="0.896903" cy="0.896903" r="0.896903" transform="matrix(4.37114e-08 1 1 -4.37114e-08 222.499 208.833)" fill="#4A49A3"/>
<circle cx="0.896903" cy="0.896903" r="0.896903" transform="matrix(4.37114e-08 1 1 -4.37114e-08 242.942 208.833)" fill="#4A49A3"/>
<circle cx="0.896903" cy="0.896903" r="0.896903" transform="matrix(4.37114e-08 1 1 -4.37114e-08 171.395 270.159)" fill="#4A49A3"/>
<circle cx="0.896903" cy="0.896903" r="0.896903" transform="matrix(4.37114e-08 1 1 -4.37114e-08 191.835 270.159)" fill="#4A49A3"/>
<circle cx="0.896903" cy="0.896903" r="0.896903" transform="matrix(4.37114e-08 1 1 -4.37114e-08 212.279 270.159)" fill="#4A49A3"/>
<circle cx="0.896903" cy="0.896903" r="0.896903" transform="matrix(4.37114e-08 1 1 -4.37114e-08 232.722 270.16)" fill="#4A49A3"/>
<circle cx="0.896903" cy="0.896903" r="0.896903" transform="matrix(4.37114e-08 1 1 -4.37114e-08 161.172 270.159)" fill="#4A49A3"/>
<circle cx="0.896903" cy="0.896903" r="0.896903" transform="matrix(4.37114e-08 1 1 -4.37114e-08 181.616 270.159)" fill="#4A49A3"/>
<circle cx="0.896903" cy="0.896903" r="0.896903" transform="matrix(4.37114e-08 1 1 -4.37114e-08 202.058 270.159)" fill="#4A49A3"/>
<circle cx="0.896903" cy="0.896903" r="0.896903" transform="matrix(4.37114e-08 1 1 -4.37114e-08 222.499 270.159)" fill="#4A49A3"/>
<circle cx="0.896903" cy="0.896903" r="0.896903" transform="matrix(4.37114e-08 1 1 -4.37114e-08 242.942 270.16)" fill="#4A49A3"/>
<circle cx="0.896903" cy="0.896903" r="0.896903" transform="matrix(4.37114e-08 1 1 -4.37114e-08 171.395 219.053)" fill="#4A49A3"/>
<circle cx="0.896903" cy="0.896903" r="0.896903" transform="matrix(4.37114e-08 1 1 -4.37114e-08 191.835 219.053)" fill="#4A49A3"/>
<circle cx="0.896903" cy="0.896903" r="0.896903" transform="matrix(4.37114e-08 1 1 -4.37114e-08 212.279 219.053)" fill="#4A49A3"/>
<circle cx="0.896903" cy="0.896903" r="0.896903" transform="matrix(4.37114e-08 1 1 -4.37114e-08 232.722 219.053)" fill="#4A49A3"/>
<circle cx="0.896903" cy="0.896903" r="0.896903" transform="matrix(4.37114e-08 1 1 -4.37114e-08 161.172 219.053)" fill="#4A49A3"/>
<circle cx="0.896903" cy="0.896903" r="0.896903" transform="matrix(4.37114e-08 1 1 -4.37114e-08 181.616 219.053)" fill="#4A49A3"/>
<circle cx="0.896903" cy="0.896903" r="0.896903" transform="matrix(4.37114e-08 1 1 -4.37114e-08 202.058 219.053)" fill="#4A49A3"/>
<circle cx="0.896903" cy="0.896903" r="0.896903" transform="matrix(4.37114e-08 1 1 -4.37114e-08 222.499 219.053)" fill="#4A49A3"/>
<circle cx="0.896903" cy="0.896903" r="0.896903" transform="matrix(4.37114e-08 1 1 -4.37114e-08 242.942 219.053)" fill="#4A49A3"/>
<circle cx="0.896903" cy="0.896903" r="0.896903" transform="matrix(4.37114e-08 1 1 -4.37114e-08 171.395 280.381)" fill="#4A49A3"/>
<circle cx="0.896903" cy="0.896903" r="0.896903" transform="matrix(4.37114e-08 1 1 -4.37114e-08 191.835 280.381)" fill="#4A49A3"/>
<circle cx="0.896903" cy="0.896903" r="0.896903" transform="matrix(4.37114e-08 1 1 -4.37114e-08 212.279 280.381)" fill="#4A49A3"/>
<circle cx="0.896903" cy="0.896903" r="0.896903" transform="matrix(4.37114e-08 1 1 -4.37114e-08 232.722 280.381)" fill="#4A49A3"/>
<circle cx="0.896903" cy="0.896903" r="0.896903" transform="matrix(4.37114e-08 1 1 -4.37114e-08 161.175 280.381)" fill="#4A49A3"/>
<circle cx="0.896903" cy="0.896903" r="0.896903" transform="matrix(4.37114e-08 1 1 -4.37114e-08 181.616 280.381)" fill="#4A49A3"/>
<circle cx="0.896903" cy="0.896903" r="0.896903" transform="matrix(4.37114e-08 1 1 -4.37114e-08 202.058 280.381)" fill="#4A49A3"/>
<circle cx="0.896903" cy="0.896903" r="0.896903" transform="matrix(4.37114e-08 1 1 -4.37114e-08 222.499 280.381)" fill="#4A49A3"/>
<circle cx="0.896903" cy="0.896903" r="0.896903" transform="matrix(4.37114e-08 1 1 -4.37114e-08 242.942 280.381)" fill="#4A49A3"/>
<circle cx="0.896903" cy="0.896903" r="0.896903" transform="matrix(4.37114e-08 1 1 -4.37114e-08 171.395 229.275)" fill="#4A49A3"/>
<circle cx="0.896903" cy="0.896903" r="0.896903" transform="matrix(4.37114e-08 1 1 -4.37114e-08 191.835 229.275)" fill="#4A49A3"/>
<circle cx="0.896903" cy="0.896903" r="0.896903" transform="matrix(4.37114e-08 1 1 -4.37114e-08 212.279 229.275)" fill="#4A49A3"/>
<circle cx="0.896903" cy="0.896903" r="0.896903" transform="matrix(4.37114e-08 1 1 -4.37114e-08 232.722 229.275)" fill="#4A49A3"/>
<circle cx="0.896903" cy="0.896903" r="0.896903" transform="matrix(4.37114e-08 1 1 -4.37114e-08 161.175 229.275)" fill="#4A49A3"/>
<circle cx="0.896903" cy="0.896903" r="0.896903" transform="matrix(4.37114e-08 1 1 -4.37114e-08 181.616 229.275)" fill="#4A49A3"/>
<circle cx="0.896903" cy="0.896903" r="0.896903" transform="matrix(4.37114e-08 1 1 -4.37114e-08 202.058 229.275)" fill="#4A49A3"/>
<circle cx="0.896903" cy="0.896903" r="0.896903" transform="matrix(4.37114e-08 1 1 -4.37114e-08 222.499 229.275)" fill="#4A49A3"/>
<circle cx="0.896903" cy="0.896903" r="0.896903" transform="matrix(4.37114e-08 1 1 -4.37114e-08 242.942 229.275)" fill="#4A49A3"/>
<circle cx="0.896903" cy="0.896903" r="0.896903" transform="matrix(4.37114e-08 1 1 -4.37114e-08 251.946 239.497)" fill="#4A49A3"/>
<circle cx="0.896903" cy="0.896903" r="0.896903" transform="matrix(4.37114e-08 1 1 -4.37114e-08 251.946 249.717)" fill="#4A49A3"/>
<circle cx="0.896903" cy="0.896903" r="0.896903" transform="matrix(4.37114e-08 1 1 -4.37114e-08 251.946 198.613)" fill="#4A49A3"/>
<circle cx="0.896903" cy="0.896903" r="0.896903" transform="matrix(4.37114e-08 1 1 -4.37114e-08 251.946 259.939)" fill="#4A49A3"/>
<circle cx="0.896903" cy="0.896903" r="0.896903" transform="matrix(4.37114e-08 1 1 -4.37114e-08 251.946 208.833)" fill="#4A49A3"/>
<circle cx="0.896903" cy="0.896903" r="0.896903" transform="matrix(4.37114e-08 1 1 -4.37114e-08 251.946 270.159)" fill="#4A49A3"/>
<circle cx="0.896903" cy="0.896903" r="0.896903" transform="matrix(4.37114e-08 1 1 -4.37114e-08 251.946 219.053)" fill="#4A49A3"/>
<circle cx="0.896903" cy="0.896903" r="0.896903" transform="matrix(4.37114e-08 1 1 -4.37114e-08 251.946 280.381)" fill="#4A49A3"/>
<circle cx="0.896903" cy="0.896903" r="0.896903" transform="matrix(4.37114e-08 1 1 -4.37114e-08 251.946 229.275)" fill="#4A49A3"/>
</g>
<circle cx="207.128" cy="346.872" r="45.6284" fill="#112235" stroke="#BFEAE6"/>
<circle cx="314" cy="133.128" r="45.6284" fill="#112235" stroke="#BFEAE6"/>
<circle cx="314" cy="240" r="45.6284" stroke="#D1F960"/>
<mask id="mask2_1_13229" style="mask-type:alpha" maskUnits="userSpaceOnUse" x="268" y="194" width="92" height="92">
<circle cx="314" cy="240" r="45.2149" fill="#D9D9D9"/>
</mask>
<g mask="url(#mask2_1_13229)">
<circle cx="0.896903" cy="0.896903" r="0.896903" transform="matrix(4.37114e-08 1 1 -4.37114e-08 278.267 239.497)" fill="#4A49A3"/>
<circle cx="0.896903" cy="0.896903" r="0.896903" transform="matrix(4.37114e-08 1 1 -4.37114e-08 298.707 239.497)" fill="#4A49A3"/>
<circle cx="0.896903" cy="0.896903" r="0.896903" transform="matrix(4.37114e-08 1 1 -4.37114e-08 319.151 239.497)" fill="#4A49A3"/>
<circle cx="0.896903" cy="0.896903" r="0.896903" transform="matrix(4.37114e-08 1 1 -4.37114e-08 339.594 239.497)" fill="#4A49A3"/>
<circle cx="0.896903" cy="0.896903" r="0.896903" transform="matrix(4.37114e-08 1 1 -4.37114e-08 268.047 239.497)" fill="#4A49A3"/>
<circle cx="0.896903" cy="0.896903" r="0.896903" transform="matrix(4.37114e-08 1 1 -4.37114e-08 288.487 239.497)" fill="#4A49A3"/>
<circle cx="0.896903" cy="0.896903" r="0.896903" transform="matrix(4.37114e-08 1 1 -4.37114e-08 308.93 239.497)" fill="#4A49A3"/>
<circle cx="0.896903" cy="0.896903" r="0.896903" transform="matrix(4.37114e-08 1 1 -4.37114e-08 329.371 239.497)" fill="#4A49A3"/>
<circle cx="0.896903" cy="0.896903" r="0.896903" transform="matrix(4.37114e-08 1 1 -4.37114e-08 349.814 239.497)" fill="#4A49A3"/>
<circle cx="0.896903" cy="0.896903" r="0.896903" transform="matrix(4.37114e-08 1 1 -4.37114e-08 278.267 249.717)" fill="#4A49A3"/>
<circle cx="0.896903" cy="0.896903" r="0.896903" transform="matrix(4.37114e-08 1 1 -4.37114e-08 298.707 249.717)" fill="#4A49A3"/>
<circle cx="0.896903" cy="0.896903" r="0.896903" transform="matrix(4.37114e-08 1 1 -4.37114e-08 319.151 249.717)" fill="#4A49A3"/>
<circle cx="0.896903" cy="0.896903" r="0.896903" transform="matrix(4.37114e-08 1 1 -4.37114e-08 339.594 249.717)" fill="#4A49A3"/>
<circle cx="0.896903" cy="0.896903" r="0.896903" transform="matrix(4.37114e-08 1 1 -4.37114e-08 268.044 249.717)" fill="#4A49A3"/>
<circle cx="0.896903" cy="0.896903" r="0.896903" transform="matrix(4.37114e-08 1 1 -4.37114e-08 288.487 249.717)" fill="#4A49A3"/>
<circle cx="0.896903" cy="0.896903" r="0.896903" transform="matrix(4.37114e-08 1 1 -4.37114e-08 308.93 249.717)" fill="#4A49A3"/>
<circle cx="0.896903" cy="0.896903" r="0.896903" transform="matrix(4.37114e-08 1 1 -4.37114e-08 329.371 249.717)" fill="#4A49A3"/>
<circle cx="0.896903" cy="0.896903" r="0.896903" transform="matrix(4.37114e-08 1 1 -4.37114e-08 349.814 249.717)" fill="#4A49A3"/>
<circle cx="0.896903" cy="0.896903" r="0.896903" transform="matrix(4.37114e-08 1 1 -4.37114e-08 278.267 198.613)" fill="#4A49A3"/>
<circle cx="0.896903" cy="0.896903" r="0.896903" transform="matrix(4.37114e-08 1 1 -4.37114e-08 298.707 198.613)" fill="#4A49A3"/>
<circle cx="0.896903" cy="0.896903" r="0.896903" transform="matrix(4.37114e-08 1 1 -4.37114e-08 319.151 198.613)" fill="#4A49A3"/>
<circle cx="0.896903" cy="0.896903" r="0.896903" transform="matrix(4.37114e-08 1 1 -4.37114e-08 339.594 198.613)" fill="#4A49A3"/>
<circle cx="0.896903" cy="0.896903" r="0.896903" transform="matrix(4.37114e-08 1 1 -4.37114e-08 268.044 198.613)" fill="#4A49A3"/>
<circle cx="0.896903" cy="0.896903" r="0.896903" transform="matrix(4.37114e-08 1 1 -4.37114e-08 288.487 198.613)" fill="#4A49A3"/>
<circle cx="0.896903" cy="0.896903" r="0.896903" transform="matrix(4.37114e-08 1 1 -4.37114e-08 308.93 198.613)" fill="#4A49A3"/>
<circle cx="0.896903" cy="0.896903" r="0.896903" transform="matrix(4.37114e-08 1 1 -4.37114e-08 329.371 198.613)" fill="#4A49A3"/>
<circle cx="0.896903" cy="0.896903" r="0.896903" transform="matrix(4.37114e-08 1 1 -4.37114e-08 349.814 198.613)" fill="#4A49A3"/>
<circle cx="0.896903" cy="0.896903" r="0.896903" transform="matrix(4.37114e-08 1 1 -4.37114e-08 278.267 259.938)" fill="#4A49A3"/>
<circle cx="0.896903" cy="0.896903" r="0.896903" transform="matrix(4.37114e-08 1 1 -4.37114e-08 298.707 259.938)" fill="#4A49A3"/>
<circle cx="0.896903" cy="0.896903" r="0.896903" transform="matrix(4.37114e-08 1 1 -4.37114e-08 319.151 259.938)" fill="#4A49A3"/>
<circle cx="0.896903" cy="0.896903" r="0.896903" transform="matrix(4.37114e-08 1 1 -4.37114e-08 339.594 259.938)" fill="#4A49A3"/>
<circle cx="0.896903" cy="0.896903" r="0.896903" transform="matrix(4.37114e-08 1 1 -4.37114e-08 268.047 259.938)" fill="#4A49A3"/>
<circle cx="0.896903" cy="0.896903" r="0.896903" transform="matrix(4.37114e-08 1 1 -4.37114e-08 288.487 259.938)" fill="#4A49A3"/>
<circle cx="0.896903" cy="0.896903" r="0.896903" transform="matrix(4.37114e-08 1 1 -4.37114e-08 308.93 259.938)" fill="#4A49A3"/>
<circle cx="0.896903" cy="0.896903" r="0.896903" transform="matrix(4.37114e-08 1 1 -4.37114e-08 329.371 259.938)" fill="#4A49A3"/>
<circle cx="0.896903" cy="0.896903" r="0.896903" transform="matrix(4.37114e-08 1 1 -4.37114e-08 349.814 259.938)" fill="#4A49A3"/>
<circle cx="0.896903" cy="0.896903" r="0.896903" transform="matrix(4.37114e-08 1 1 -4.37114e-08 278.267 208.833)" fill="#4A49A3"/>
<circle cx="0.896903" cy="0.896903" r="0.896903" transform="matrix(4.37114e-08 1 1 -4.37114e-08 298.707 208.833)" fill="#4A49A3"/>
<circle cx="0.896903" cy="0.896903" r="0.896903" transform="matrix(4.37114e-08 1 1 -4.37114e-08 319.151 208.833)" fill="#4A49A3"/>
<circle cx="0.896903" cy="0.896903" r="0.896903" transform="matrix(4.37114e-08 1 1 -4.37114e-08 339.594 208.833)" fill="#4A49A3"/>
<circle cx="0.896903" cy="0.896903" r="0.896903" transform="matrix(4.37114e-08 1 1 -4.37114e-08 268.047 208.833)" fill="#4A49A3"/>
<circle cx="0.896903" cy="0.896903" r="0.896903" transform="matrix(4.37114e-08 1 1 -4.37114e-08 288.487 208.833)" fill="#4A49A3"/>
<circle cx="0.896903" cy="0.896903" r="0.896903" transform="matrix(4.37114e-08 1 1 -4.37114e-08 308.93 208.833)" fill="#4A49A3"/>
<circle cx="0.896903" cy="0.896903" r="0.896903" transform="matrix(4.37114e-08 1 1 -4.37114e-08 329.371 208.833)" fill="#4A49A3"/>
<circle cx="0.896903" cy="0.896903" r="0.896903" transform="matrix(4.37114e-08 1 1 -4.37114e-08 349.814 208.833)" fill="#4A49A3"/>
<circle cx="0.896903" cy="0.896903" r="0.896903" transform="matrix(4.37114e-08 1 1 -4.37114e-08 278.267 270.159)" fill="#4A49A3"/>
<circle cx="0.896903" cy="0.896903" r="0.896903" transform="matrix(4.37114e-08 1 1 -4.37114e-08 298.707 270.159)" fill="#4A49A3"/>
<circle cx="0.896903" cy="0.896903" r="0.896903" transform="matrix(4.37114e-08 1 1 -4.37114e-08 319.151 270.159)" fill="#4A49A3"/>
<circle cx="0.896903" cy="0.896903" r="0.896903" transform="matrix(4.37114e-08 1 1 -4.37114e-08 339.594 270.16)" fill="#4A49A3"/>
<circle cx="0.896903" cy="0.896903" r="0.896903" transform="matrix(4.37114e-08 1 1 -4.37114e-08 268.044 270.159)" fill="#4A49A3"/>
<circle cx="0.896903" cy="0.896903" r="0.896903" transform="matrix(4.37114e-08 1 1 -4.37114e-08 288.487 270.159)" fill="#4A49A3"/>
<circle cx="0.896903" cy="0.896903" r="0.896903" transform="matrix(4.37114e-08 1 1 -4.37114e-08 308.93 270.159)" fill="#4A49A3"/>
<circle cx="0.896903" cy="0.896903" r="0.896903" transform="matrix(4.37114e-08 1 1 -4.37114e-08 329.371 270.159)" fill="#4A49A3"/>
<circle cx="0.896903" cy="0.896903" r="0.896903" transform="matrix(4.37114e-08 1 1 -4.37114e-08 349.814 270.16)" fill="#4A49A3"/>
<circle cx="0.896903" cy="0.896903" r="0.896903" transform="matrix(4.37114e-08 1 1 -4.37114e-08 278.267 219.053)" fill="#4A49A3"/>
<circle cx="0.896903" cy="0.896903" r="0.896903" transform="matrix(4.37114e-08 1 1 -4.37114e-08 298.707 219.053)" fill="#4A49A3"/>
<circle cx="0.896903" cy="0.896903" r="0.896903" transform="matrix(4.37114e-08 1 1 -4.37114e-08 319.151 219.053)" fill="#4A49A3"/>
<circle cx="0.896903" cy="0.896903" r="0.896903" transform="matrix(4.37114e-08 1 1 -4.37114e-08 339.594 219.053)" fill="#4A49A3"/>
<circle cx="0.896903" cy="0.896903" r="0.896903" transform="matrix(4.37114e-08 1 1 -4.37114e-08 268.044 219.053)" fill="#4A49A3"/>
<circle cx="0.896903" cy="0.896903" r="0.896903" transform="matrix(4.37114e-08 1 1 -4.37114e-08 288.487 219.053)" fill="#4A49A3"/>
<circle cx="0.896903" cy="0.896903" r="0.896903" transform="matrix(4.37114e-08 1 1 -4.37114e-08 308.93 219.053)" fill="#4A49A3"/>
<circle cx="0.896903" cy="0.896903" r="0.896903" transform="matrix(4.37114e-08 1 1 -4.37114e-08 329.371 219.053)" fill="#4A49A3"/>
<circle cx="0.896903" cy="0.896903" r="0.896903" transform="matrix(4.37114e-08 1 1 -4.37114e-08 349.814 219.053)" fill="#4A49A3"/>
<circle cx="0.896903" cy="0.896903" r="0.896903" transform="matrix(4.37114e-08 1 1 -4.37114e-08 278.267 280.381)" fill="#4A49A3"/>
<circle cx="0.896903" cy="0.896903" r="0.896903" transform="matrix(4.37114e-08 1 1 -4.37114e-08 298.707 280.381)" fill="#4A49A3"/>
<circle cx="0.896903" cy="0.896903" r="0.896903" transform="matrix(4.37114e-08 1 1 -4.37114e-08 319.151 280.381)" fill="#4A49A3"/>
<circle cx="0.896903" cy="0.896903" r="0.896903" transform="matrix(4.37114e-08 1 1 -4.37114e-08 339.594 280.381)" fill="#4A49A3"/>
<circle cx="0.896903" cy="0.896903" r="0.896903" transform="matrix(4.37114e-08 1 1 -4.37114e-08 268.047 280.381)" fill="#4A49A3"/>
<circle cx="0.896903" cy="0.896903" r="0.896903" transform="matrix(4.37114e-08 1 1 -4.37114e-08 288.487 280.381)" fill="#4A49A3"/>
<circle cx="0.896903" cy="0.896903" r="0.896903" transform="matrix(4.37114e-08 1 1 -4.37114e-08 308.93 280.381)" fill="#4A49A3"/>
<circle cx="0.896903" cy="0.896903" r="0.896903" transform="matrix(4.37114e-08 1 1 -4.37114e-08 329.371 280.381)" fill="#4A49A3"/>
<circle cx="0.896903" cy="0.896903" r="0.896903" transform="matrix(4.37114e-08 1 1 -4.37114e-08 349.814 280.381)" fill="#4A49A3"/>
<circle cx="0.896903" cy="0.896903" r="0.896903" transform="matrix(4.37114e-08 1 1 -4.37114e-08 278.267 229.275)" fill="#4A49A3"/>
<circle cx="0.896903" cy="0.896903" r="0.896903" transform="matrix(4.37114e-08 1 1 -4.37114e-08 298.707 229.275)" fill="#4A49A3"/>
<circle cx="0.896903" cy="0.896903" r="0.896903" transform="matrix(4.37114e-08 1 1 -4.37114e-08 319.151 229.275)" fill="#4A49A3"/>
<circle cx="0.896903" cy="0.896903" r="0.896903" transform="matrix(4.37114e-08 1 1 -4.37114e-08 339.594 229.275)" fill="#4A49A3"/>
<circle cx="0.896903" cy="0.896903" r="0.896903" transform="matrix(4.37114e-08 1 1 -4.37114e-08 268.047 229.275)" fill="#4A49A3"/>
<circle cx="0.896903" cy="0.896903" r="0.896903" transform="matrix(4.37114e-08 1 1 -4.37114e-08 288.487 229.275)" fill="#4A49A3"/>
<circle cx="0.896903" cy="0.896903" r="0.896903" transform="matrix(4.37114e-08 1 1 -4.37114e-08 308.93 229.275)" fill="#4A49A3"/>
<circle cx="0.896903" cy="0.896903" r="0.896903" transform="matrix(4.37114e-08 1 1 -4.37114e-08 329.371 229.275)" fill="#4A49A3"/>
<circle cx="0.896903" cy="0.896903" r="0.896903" transform="matrix(4.37114e-08 1 1 -4.37114e-08 349.814 229.275)" fill="#4A49A3"/>
<circle cx="0.896903" cy="0.896903" r="0.896903" transform="matrix(4.37114e-08 1 1 -4.37114e-08 358.818 239.497)" fill="#4A49A3"/>
<circle cx="0.896903" cy="0.896903" r="0.896903" transform="matrix(4.37114e-08 1 1 -4.37114e-08 358.818 249.717)" fill="#4A49A3"/>
<circle cx="0.896903" cy="0.896903" r="0.896903" transform="matrix(4.37114e-08 1 1 -4.37114e-08 358.818 198.613)" fill="#4A49A3"/>
<circle cx="0.896903" cy="0.896903" r="0.896903" transform="matrix(4.37114e-08 1 1 -4.37114e-08 358.818 259.939)" fill="#4A49A3"/>
<circle cx="0.896903" cy="0.896903" r="0.896903" transform="matrix(4.37114e-08 1 1 -4.37114e-08 358.818 208.833)" fill="#4A49A3"/>
<circle cx="0.896903" cy="0.896903" r="0.896903" transform="matrix(4.37114e-08 1 1 -4.37114e-08 358.818 270.159)" fill="#4A49A3"/>
<circle cx="0.896903" cy="0.896903" r="0.896903" transform="matrix(4.37114e-08 1 1 -4.37114e-08 358.818 219.053)" fill="#4A49A3"/>
<circle cx="0.896903" cy="0.896903" r="0.896903" transform="matrix(4.37114e-08 1 1 -4.37114e-08 358.818 280.381)" fill="#4A49A3"/>
<circle cx="0.896903" cy="0.896903" r="0.896903" transform="matrix(4.37114e-08 1 1 -4.37114e-08 358.818 229.275)" fill="#4A49A3"/>
</g>
<circle cx="314" cy="346.872" r="45.6284" stroke="#D1F960"/>
<mask id="mask3_1_13229" style="mask-type:alpha" maskUnits="userSpaceOnUse" x="268" y="301" width="92" height="92">
<circle cx="314" cy="346.872" r="45.2149" fill="#D9D9D9"/>
</mask>
<g mask="url(#mask3_1_13229)">
<circle cx="0.896903" cy="0.896903" r="0.896903" transform="matrix(4.37114e-08 1 1 -4.37114e-08 278.267 346.369)" fill="#4A49A3"/>
<circle cx="0.896903" cy="0.896903" r="0.896903" transform="matrix(4.37114e-08 1 1 -4.37114e-08 298.708 346.369)" fill="#4A49A3"/>
<circle cx="0.896903" cy="0.896903" r="0.896903" transform="matrix(4.37114e-08 1 1 -4.37114e-08 319.151 346.369)" fill="#4A49A3"/>
<circle cx="0.896903" cy="0.896903" r="0.896903" transform="matrix(4.37114e-08 1 1 -4.37114e-08 339.594 346.369)" fill="#4A49A3"/>
<circle cx="0.896903" cy="0.896903" r="0.896903" transform="matrix(4.37114e-08 1 1 -4.37114e-08 268.047 346.369)" fill="#4A49A3"/>
<circle cx="0.896903" cy="0.896903" r="0.896903" transform="matrix(4.37114e-08 1 1 -4.37114e-08 288.488 346.369)" fill="#4A49A3"/>
<circle cx="0.896903" cy="0.896903" r="0.896903" transform="matrix(4.37114e-08 1 1 -4.37114e-08 308.931 346.369)" fill="#4A49A3"/>
<circle cx="0.896903" cy="0.896903" r="0.896903" transform="matrix(4.37114e-08 1 1 -4.37114e-08 329.371 346.369)" fill="#4A49A3"/>
<circle cx="0.896903" cy="0.896903" r="0.896903" transform="matrix(4.37114e-08 1 1 -4.37114e-08 349.814 346.369)" fill="#4A49A3"/>
<circle cx="0.896903" cy="0.896903" r="0.896903" transform="matrix(4.37114e-08 1 1 -4.37114e-08 278.267 356.589)" fill="#4A49A3"/>
<circle cx="0.896903" cy="0.896903" r="0.896903" transform="matrix(4.37114e-08 1 1 -4.37114e-08 298.708 356.589)" fill="#4A49A3"/>
<circle cx="0.896903" cy="0.896903" r="0.896903" transform="matrix(4.37114e-08 1 1 -4.37114e-08 319.151 356.589)" fill="#4A49A3"/>
<circle cx="0.896903" cy="0.896903" r="0.896903" transform="matrix(4.37114e-08 1 1 -4.37114e-08 339.594 356.589)" fill="#4A49A3"/>
<circle cx="0.896903" cy="0.896903" r="0.896903" transform="matrix(4.37114e-08 1 1 -4.37114e-08 268.044 356.589)" fill="#4A49A3"/>
<circle cx="0.896903" cy="0.896903" r="0.896903" transform="matrix(4.37114e-08 1 1 -4.37114e-08 288.488 356.589)" fill="#4A49A3"/>
<circle cx="0.896903" cy="0.896903" r="0.896903" transform="matrix(4.37114e-08 1 1 -4.37114e-08 308.931 356.589)" fill="#4A49A3"/>
<circle cx="0.896903" cy="0.896903" r="0.896903" transform="matrix(4.37114e-08 1 1 -4.37114e-08 329.371 356.589)" fill="#4A49A3"/>
<circle cx="0.896903" cy="0.896903" r="0.896903" transform="matrix(4.37114e-08 1 1 -4.37114e-08 349.814 356.589)" fill="#4A49A3"/>
<circle cx="0.896903" cy="0.896903" r="0.896903" transform="matrix(4.37114e-08 1 1 -4.37114e-08 278.267 305.485)" fill="#4A49A3"/>
<circle cx="0.896903" cy="0.896903" r="0.896903" transform="matrix(4.37114e-08 1 1 -4.37114e-08 298.708 305.485)" fill="#4A49A3"/>
<circle cx="0.896903" cy="0.896903" r="0.896903" transform="matrix(4.37114e-08 1 1 -4.37114e-08 319.151 305.485)" fill="#4A49A3"/>
<circle cx="0.896903" cy="0.896903" r="0.896903" transform="matrix(4.37114e-08 1 1 -4.37114e-08 339.594 305.485)" fill="#4A49A3"/>
<circle cx="0.896903" cy="0.896903" r="0.896903" transform="matrix(4.37114e-08 1 1 -4.37114e-08 268.044 305.485)" fill="#4A49A3"/>
<circle cx="0.896903" cy="0.896903" r="0.896903" transform="matrix(4.37114e-08 1 1 -4.37114e-08 288.488 305.485)" fill="#4A49A3"/>
<circle cx="0.896903" cy="0.896903" r="0.896903" transform="matrix(4.37114e-08 1 1 -4.37114e-08 308.931 305.485)" fill="#4A49A3"/>
<circle cx="0.896903" cy="0.896903" r="0.896903" transform="matrix(4.37114e-08 1 1 -4.37114e-08 329.371 305.485)" fill="#4A49A3"/>
<circle cx="0.896903" cy="0.896903" r="0.896903" transform="matrix(4.37114e-08 1 1 -4.37114e-08 349.814 305.485)" fill="#4A49A3"/>
<circle cx="0.896903" cy="0.896903" r="0.896903" transform="matrix(4.37114e-08 1 1 -4.37114e-08 278.267 366.811)" fill="#4A49A3"/>
<circle cx="0.896903" cy="0.896903" r="0.896903" transform="matrix(4.37114e-08 1 1 -4.37114e-08 298.708 366.811)" fill="#4A49A3"/>
<circle cx="0.896903" cy="0.896903" r="0.896903" transform="matrix(4.37114e-08 1 1 -4.37114e-08 319.151 366.811)" fill="#4A49A3"/>
<circle cx="0.896903" cy="0.896903" r="0.896903" transform="matrix(4.37114e-08 1 1 -4.37114e-08 339.594 366.811)" fill="#4A49A3"/>
<circle cx="0.896903" cy="0.896903" r="0.896903" transform="matrix(4.37114e-08 1 1 -4.37114e-08 268.047 366.811)" fill="#4A49A3"/>
<circle cx="0.896903" cy="0.896903" r="0.896903" transform="matrix(4.37114e-08 1 1 -4.37114e-08 288.488 366.811)" fill="#4A49A3"/>
<circle cx="0.896903" cy="0.896903" r="0.896903" transform="matrix(4.37114e-08 1 1 -4.37114e-08 308.931 366.811)" fill="#4A49A3"/>
<circle cx="0.896903" cy="0.896903" r="0.896903" transform="matrix(4.37114e-08 1 1 -4.37114e-08 329.371 366.811)" fill="#4A49A3"/>
<circle cx="0.896903" cy="0.896903" r="0.896903" transform="matrix(4.37114e-08 1 1 -4.37114e-08 349.814 366.811)" fill="#4A49A3"/>
<circle cx="0.896903" cy="0.896903" r="0.896903" transform="matrix(4.37114e-08 1 1 -4.37114e-08 278.267 315.706)" fill="#4A49A3"/>
<circle cx="0.896903" cy="0.896903" r="0.896903" transform="matrix(4.37114e-08 1 1 -4.37114e-08 298.708 315.706)" fill="#4A49A3"/>
<circle cx="0.896903" cy="0.896903" r="0.896903" transform="matrix(4.37114e-08 1 1 -4.37114e-08 319.151 315.706)" fill="#4A49A3"/>
<circle cx="0.896903" cy="0.896903" r="0.896903" transform="matrix(4.37114e-08 1 1 -4.37114e-08 339.594 315.706)" fill="#4A49A3"/>
<circle cx="0.896903" cy="0.896903" r="0.896903" transform="matrix(4.37114e-08 1 1 -4.37114e-08 268.047 315.706)" fill="#4A49A3"/>
<circle cx="0.896903" cy="0.896903" r="0.896903" transform="matrix(4.37114e-08 1 1 -4.37114e-08 288.488 315.706)" fill="#4A49A3"/>
<circle cx="0.896903" cy="0.896903" r="0.896903" transform="matrix(4.37114e-08 1 1 -4.37114e-08 308.931 315.706)" fill="#4A49A3"/>
<circle cx="0.896903" cy="0.896903" r="0.896903" transform="matrix(4.37114e-08 1 1 -4.37114e-08 329.371 315.706)" fill="#4A49A3"/>
<circle cx="0.896903" cy="0.896903" r="0.896903" transform="matrix(4.37114e-08 1 1 -4.37114e-08 349.814 315.706)" fill="#4A49A3"/>
<circle cx="0.896903" cy="0.896903" r="0.896903" transform="matrix(4.37114e-08 1 1 -4.37114e-08 278.267 377.031)" fill="#4A49A3"/>
<circle cx="0.896903" cy="0.896903" r="0.896903" transform="matrix(4.37114e-08 1 1 -4.37114e-08 298.708 377.031)" fill="#4A49A3"/>
<circle cx="0.896903" cy="0.896903" r="0.896903" transform="matrix(4.37114e-08 1 1 -4.37114e-08 319.151 377.031)" fill="#4A49A3"/>
<circle cx="0.896903" cy="0.896903" r="0.896903" transform="matrix(4.37114e-08 1 1 -4.37114e-08 339.594 377.032)" fill="#4A49A3"/>
<circle cx="0.896903" cy="0.896903" r="0.896903" transform="matrix(4.37114e-08 1 1 -4.37114e-08 268.044 377.031)" fill="#4A49A3"/>
<circle cx="0.896903" cy="0.896903" r="0.896903" transform="matrix(4.37114e-08 1 1 -4.37114e-08 288.488 377.031)" fill="#4A49A3"/>
<circle cx="0.896903" cy="0.896903" r="0.896903" transform="matrix(4.37114e-08 1 1 -4.37114e-08 308.931 377.031)" fill="#4A49A3"/>
<circle cx="0.896903" cy="0.896903" r="0.896903" transform="matrix(4.37114e-08 1 1 -4.37114e-08 329.371 377.031)" fill="#4A49A3"/>
<circle cx="0.896903" cy="0.896903" r="0.896903" transform="matrix(4.37114e-08 1 1 -4.37114e-08 349.814 377.032)" fill="#4A49A3"/>
<circle cx="0.896903" cy="0.896903" r="0.896903" transform="matrix(4.37114e-08 1 1 -4.37114e-08 278.267 325.926)" fill="#4A49A3"/>
<circle cx="0.896903" cy="0.896903" r="0.896903" transform="matrix(4.37114e-08 1 1 -4.37114e-08 298.708 325.926)" fill="#4A49A3"/>
<circle cx="0.896903" cy="0.896903" r="0.896903" transform="matrix(4.37114e-08 1 1 -4.37114e-08 319.151 325.926)" fill="#4A49A3"/>
<circle cx="0.896903" cy="0.896903" r="0.896903" transform="matrix(4.37114e-08 1 1 -4.37114e-08 339.594 325.926)" fill="#4A49A3"/>
<circle cx="0.896903" cy="0.896903" r="0.896903" transform="matrix(4.37114e-08 1 1 -4.37114e-08 268.044 325.926)" fill="#4A49A3"/>
<circle cx="0.896903" cy="0.896903" r="0.896903" transform="matrix(4.37114e-08 1 1 -4.37114e-08 288.488 325.926)" fill="#4A49A3"/>
<circle cx="0.896903" cy="0.896903" r="0.896903" transform="matrix(4.37114e-08 1 1 -4.37114e-08 308.931 325.926)" fill="#4A49A3"/>
<circle cx="0.896903" cy="0.896903" r="0.896903" transform="matrix(4.37114e-08 1 1 -4.37114e-08 329.371 325.926)" fill="#4A49A3"/>
<circle cx="0.896903" cy="0.896903" r="0.896903" transform="matrix(4.37114e-08 1 1 -4.37114e-08 349.814 325.926)" fill="#4A49A3"/>
<circle cx="0.896903" cy="0.896903" r="0.896903" transform="matrix(4.37114e-08 1 1 -4.37114e-08 278.267 387.253)" fill="#4A49A3"/>
<circle cx="0.896903" cy="0.896903" r="0.896903" transform="matrix(4.37114e-08 1 1 -4.37114e-08 298.708 387.253)" fill="#4A49A3"/>
<circle cx="0.896903" cy="0.896903" r="0.896903" transform="matrix(4.37114e-08 1 1 -4.37114e-08 319.151 387.253)" fill="#4A49A3"/>
<circle cx="0.896903" cy="0.896903" r="0.896903" transform="matrix(4.37114e-08 1 1 -4.37114e-08 339.594 387.253)" fill="#4A49A3"/>
<circle cx="0.896903" cy="0.896903" r="0.896903" transform="matrix(4.37114e-08 1 1 -4.37114e-08 268.047 387.253)" fill="#4A49A3"/>
<circle cx="0.896903" cy="0.896903" r="0.896903" transform="matrix(4.37114e-08 1 1 -4.37114e-08 288.488 387.253)" fill="#4A49A3"/>
<circle cx="0.896903" cy="0.896903" r="0.896903" transform="matrix(4.37114e-08 1 1 -4.37114e-08 308.931 387.253)" fill="#4A49A3"/>
<circle cx="0.896903" cy="0.896903" r="0.896903" transform="matrix(4.37114e-08 1 1 -4.37114e-08 329.371 387.253)" fill="#4A49A3"/>
<circle cx="0.896903" cy="0.896903" r="0.896903" transform="matrix(4.37114e-08 1 1 -4.37114e-08 349.814 387.253)" fill="#4A49A3"/>
<circle cx="0.896903" cy="0.896903" r="0.896903" transform="matrix(4.37114e-08 1 1 -4.37114e-08 278.267 336.147)" fill="#4A49A3"/>
<circle cx="0.896903" cy="0.896903" r="0.896903" transform="matrix(4.37114e-08 1 1 -4.37114e-08 298.708 336.147)" fill="#4A49A3"/>
<circle cx="0.896903" cy="0.896903" r="0.896903" transform="matrix(4.37114e-08 1 1 -4.37114e-08 319.151 336.147)" fill="#4A49A3"/>
<circle cx="0.896903" cy="0.896903" r="0.896903" transform="matrix(4.37114e-08 1 1 -4.37114e-08 339.594 336.147)" fill="#4A49A3"/>
<circle cx="0.896903" cy="0.896903" r="0.896903" transform="matrix(4.37114e-08 1 1 -4.37114e-08 268.047 336.147)" fill="#4A49A3"/>
<circle cx="0.896903" cy="0.896903" r="0.896903" transform="matrix(4.37114e-08 1 1 -4.37114e-08 288.488 336.147)" fill="#4A49A3"/>
<circle cx="0.896903" cy="0.896903" r="0.896903" transform="matrix(4.37114e-08 1 1 -4.37114e-08 308.931 336.147)" fill="#4A49A3"/>
<circle cx="0.896903" cy="0.896903" r="0.896903" transform="matrix(4.37114e-08 1 1 -4.37114e-08 329.371 336.147)" fill="#4A49A3"/>
<circle cx="0.896903" cy="0.896903" r="0.896903" transform="matrix(4.37114e-08 1 1 -4.37114e-08 349.814 336.147)" fill="#4A49A3"/>
<circle cx="0.896903" cy="0.896903" r="0.896903" transform="matrix(4.37114e-08 1 1 -4.37114e-08 358.818 346.369)" fill="#4A49A3"/>
<circle cx="0.896903" cy="0.896903" r="0.896903" transform="matrix(4.37114e-08 1 1 -4.37114e-08 358.818 356.589)" fill="#4A49A3"/>
<circle cx="0.896903" cy="0.896903" r="0.896903" transform="matrix(4.37114e-08 1 1 -4.37114e-08 358.818 305.485)" fill="#4A49A3"/>
<circle cx="0.896903" cy="0.896903" r="0.896903" transform="matrix(4.37114e-08 1 1 -4.37114e-08 358.818 366.811)" fill="#4A49A3"/>
<circle cx="0.896903" cy="0.896903" r="0.896903" transform="matrix(4.37114e-08 1 1 -4.37114e-08 358.818 315.706)" fill="#4A49A3"/>
<circle cx="0.896903" cy="0.896903" r="0.896903" transform="matrix(4.37114e-08 1 1 -4.37114e-08 358.818 377.031)" fill="#4A49A3"/>
<circle cx="0.896903" cy="0.896903" r="0.896903" transform="matrix(4.37114e-08 1 1 -4.37114e-08 358.818 325.926)" fill="#4A49A3"/>
<circle cx="0.896903" cy="0.896903" r="0.896903" transform="matrix(4.37114e-08 1 1 -4.37114e-08 358.818 387.253)" fill="#4A49A3"/>
<circle cx="0.896903" cy="0.896903" r="0.896903" transform="matrix(4.37114e-08 1 1 -4.37114e-08 358.818 336.147)" fill="#4A49A3"/>
</g>
<circle cx="420.872" cy="133.128" r="45.6284" stroke="#D1F960"/>
<mask id="mask4_1_13229" style="mask-type:alpha" maskUnits="userSpaceOnUse" x="375" y="87" width="92" height="92">
<circle cx="420.872" cy="133.128" r="45.2149" fill="#D9D9D9"/>
</mask>
<g mask="url(#mask4_1_13229)">
<circle cx="0.896903" cy="0.896903" r="0.896903" transform="matrix(4.37114e-08 1 1 -4.37114e-08 385.139 132.625)" fill="#4A49A3"/>
<circle cx="0.896903" cy="0.896903" r="0.896903" transform="matrix(4.37114e-08 1 1 -4.37114e-08 405.579 132.625)" fill="#4A49A3"/>
<circle cx="0.896903" cy="0.896903" r="0.896903" transform="matrix(4.37114e-08 1 1 -4.37114e-08 426.023 132.625)" fill="#4A49A3"/>
<circle cx="0.896903" cy="0.896903" r="0.896903" transform="matrix(4.37114e-08 1 1 -4.37114e-08 446.466 132.625)" fill="#4A49A3"/>
<circle cx="0.896903" cy="0.896903" r="0.896903" transform="matrix(4.37114e-08 1 1 -4.37114e-08 374.919 132.625)" fill="#4A49A3"/>
<circle cx="0.896903" cy="0.896903" r="0.896903" transform="matrix(4.37114e-08 1 1 -4.37114e-08 395.359 132.625)" fill="#4A49A3"/>
<circle cx="0.896903" cy="0.896903" r="0.896903" transform="matrix(4.37114e-08 1 1 -4.37114e-08 415.802 132.625)" fill="#4A49A3"/>
<circle cx="0.896903" cy="0.896903" r="0.896903" transform="matrix(4.37114e-08 1 1 -4.37114e-08 436.243 132.625)" fill="#4A49A3"/>
<circle cx="0.896903" cy="0.896903" r="0.896903" transform="matrix(4.37114e-08 1 1 -4.37114e-08 456.686 132.625)" fill="#4A49A3"/>
<circle cx="0.896903" cy="0.896903" r="0.896903" transform="matrix(4.37114e-08 1 1 -4.37114e-08 385.139 142.844)" fill="#4A49A3"/>
<circle cx="0.896903" cy="0.896903" r="0.896903" transform="matrix(4.37114e-08 1 1 -4.37114e-08 405.579 142.844)" fill="#4A49A3"/>
<circle cx="0.896903" cy="0.896903" r="0.896903" transform="matrix(4.37114e-08 1 1 -4.37114e-08 426.023 142.844)" fill="#4A49A3"/>
<circle cx="0.896903" cy="0.896903" r="0.896903" transform="matrix(4.37114e-08 1 1 -4.37114e-08 446.466 142.844)" fill="#4A49A3"/>
<circle cx="0.896903" cy="0.896903" r="0.896903" transform="matrix(4.37114e-08 1 1 -4.37114e-08 374.916 142.844)" fill="#4A49A3"/>
<circle cx="0.896903" cy="0.896903" r="0.896903" transform="matrix(4.37114e-08 1 1 -4.37114e-08 395.359 142.844)" fill="#4A49A3"/>
<circle cx="0.896903" cy="0.896903" r="0.896903" transform="matrix(4.37114e-08 1 1 -4.37114e-08 415.802 142.844)" fill="#4A49A3"/>
<circle cx="0.896903" cy="0.896903" r="0.896903" transform="matrix(4.37114e-08 1 1 -4.37114e-08 436.243 142.844)" fill="#4A49A3"/>
<circle cx="0.896903" cy="0.896903" r="0.896903" transform="matrix(4.37114e-08 1 1 -4.37114e-08 456.686 142.844)" fill="#4A49A3"/>
<circle cx="0.896903" cy="0.896903" r="0.896903" transform="matrix(4.37114e-08 1 1 -4.37114e-08 385.139 91.7405)" fill="#4A49A3"/>
<circle cx="0.896903" cy="0.896903" r="0.896903" transform="matrix(4.37114e-08 1 1 -4.37114e-08 405.579 91.7405)" fill="#4A49A3"/>
<circle cx="0.896903" cy="0.896903" r="0.896903" transform="matrix(4.37114e-08 1 1 -4.37114e-08 426.023 91.7405)" fill="#4A49A3"/>
<circle cx="0.896903" cy="0.896903" r="0.896903" transform="matrix(4.37114e-08 1 1 -4.37114e-08 446.466 91.7405)" fill="#4A49A3"/>
<circle cx="0.896903" cy="0.896903" r="0.896903" transform="matrix(4.37114e-08 1 1 -4.37114e-08 374.916 91.7405)" fill="#4A49A3"/>
<circle cx="0.896903" cy="0.896903" r="0.896903" transform="matrix(4.37114e-08 1 1 -4.37114e-08 395.359 91.7405)" fill="#4A49A3"/>
<circle cx="0.896903" cy="0.896903" r="0.896903" transform="matrix(4.37114e-08 1 1 -4.37114e-08 415.802 91.7405)" fill="#4A49A3"/>
<circle cx="0.896903" cy="0.896903" r="0.896903" transform="matrix(4.37114e-08 1 1 -4.37114e-08 436.243 91.7405)" fill="#4A49A3"/>
<circle cx="0.896903" cy="0.896903" r="0.896903" transform="matrix(4.37114e-08 1 1 -4.37114e-08 456.686 91.7405)" fill="#4A49A3"/>
<circle cx="0.896903" cy="0.896903" r="0.896903" transform="matrix(4.37114e-08 1 1 -4.37114e-08 385.139 153.066)" fill="#4A49A3"/>
<circle cx="0.896903" cy="0.896903" r="0.896903" transform="matrix(4.37114e-08 1 1 -4.37114e-08 405.579 153.066)" fill="#4A49A3"/>
<circle cx="0.896903" cy="0.896903" r="0.896903" transform="matrix(4.37114e-08 1 1 -4.37114e-08 426.023 153.066)" fill="#4A49A3"/>
<circle cx="0.896903" cy="0.896903" r="0.896903" transform="matrix(4.37114e-08 1 1 -4.37114e-08 446.466 153.066)" fill="#4A49A3"/>
<circle cx="0.896903" cy="0.896903" r="0.896903" transform="matrix(4.37114e-08 1 1 -4.37114e-08 374.919 153.066)" fill="#4A49A3"/>
<circle cx="0.896903" cy="0.896903" r="0.896903" transform="matrix(4.37114e-08 1 1 -4.37114e-08 395.359 153.066)" fill="#4A49A3"/>
<circle cx="0.896903" cy="0.896903" r="0.896903" transform="matrix(4.37114e-08 1 1 -4.37114e-08 415.802 153.066)" fill="#4A49A3"/>
<circle cx="0.896903" cy="0.896903" r="0.896903" transform="matrix(4.37114e-08 1 1 -4.37114e-08 436.243 153.066)" fill="#4A49A3"/>
<circle cx="0.896903" cy="0.896903" r="0.896903" transform="matrix(4.37114e-08 1 1 -4.37114e-08 456.686 153.066)" fill="#4A49A3"/>
<circle cx="0.896903" cy="0.896903" r="0.896903" transform="matrix(4.37114e-08 1 1 -4.37114e-08 385.139 101.961)" fill="#4A49A3"/>
<circle cx="0.896903" cy="0.896903" r="0.896903" transform="matrix(4.37114e-08 1 1 -4.37114e-08 405.579 101.961)" fill="#4A49A3"/>
<circle cx="0.896903" cy="0.896903" r="0.896903" transform="matrix(4.37114e-08 1 1 -4.37114e-08 426.023 101.961)" fill="#4A49A3"/>
<circle cx="0.896903" cy="0.896903" r="0.896903" transform="matrix(4.37114e-08 1 1 -4.37114e-08 446.466 101.961)" fill="#4A49A3"/>
<circle cx="0.896903" cy="0.896903" r="0.896903" transform="matrix(4.37114e-08 1 1 -4.37114e-08 374.919 101.961)" fill="#4A49A3"/>
<circle cx="0.896903" cy="0.896903" r="0.896903" transform="matrix(4.37114e-08 1 1 -4.37114e-08 395.359 101.961)" fill="#4A49A3"/>
<circle cx="0.896903" cy="0.896903" r="0.896903" transform="matrix(4.37114e-08 1 1 -4.37114e-08 415.802 101.961)" fill="#4A49A3"/>
<circle cx="0.896903" cy="0.896903" r="0.896903" transform="matrix(4.37114e-08 1 1 -4.37114e-08 436.243 101.961)" fill="#4A49A3"/>
<circle cx="0.896903" cy="0.896903" r="0.896903" transform="matrix(4.37114e-08 1 1 -4.37114e-08 456.686 101.961)" fill="#4A49A3"/>
<circle cx="0.896903" cy="0.896903" r="0.896903" transform="matrix(4.37114e-08 1 1 -4.37114e-08 385.139 163.287)" fill="#4A49A3"/>
<circle cx="0.896903" cy="0.896903" r="0.896903" transform="matrix(4.37114e-08 1 1 -4.37114e-08 405.579 163.287)" fill="#4A49A3"/>
<circle cx="0.896903" cy="0.896903" r="0.896903" transform="matrix(4.37114e-08 1 1 -4.37114e-08 426.023 163.287)" fill="#4A49A3"/>
<circle cx="0.896903" cy="0.896903" r="0.896903" transform="matrix(4.37114e-08 1 1 -4.37114e-08 446.466 163.287)" fill="#4A49A3"/>
<circle cx="0.896903" cy="0.896903" r="0.896903" transform="matrix(4.37114e-08 1 1 -4.37114e-08 374.916 163.287)" fill="#4A49A3"/>
<circle cx="0.896903" cy="0.896903" r="0.896903" transform="matrix(4.37114e-08 1 1 -4.37114e-08 395.359 163.287)" fill="#4A49A3"/>
<circle cx="0.896903" cy="0.896903" r="0.896903" transform="matrix(4.37114e-08 1 1 -4.37114e-08 415.802 163.287)" fill="#4A49A3"/>
<circle cx="0.896903" cy="0.896903" r="0.896903" transform="matrix(4.37114e-08 1 1 -4.37114e-08 436.243 163.287)" fill="#4A49A3"/>
<circle cx="0.896903" cy="0.896903" r="0.896903" transform="matrix(4.37114e-08 1 1 -4.37114e-08 456.686 163.287)" fill="#4A49A3"/>
<circle cx="0.896903" cy="0.896903" r="0.896903" transform="matrix(4.37114e-08 1 1 -4.37114e-08 385.139 112.181)" fill="#4A49A3"/>
<circle cx="0.896903" cy="0.896903" r="0.896903" transform="matrix(4.37114e-08 1 1 -4.37114e-08 405.579 112.181)" fill="#4A49A3"/>
<circle cx="0.896903" cy="0.896903" r="0.896903" transform="matrix(4.37114e-08 1 1 -4.37114e-08 426.023 112.181)" fill="#4A49A3"/>
<circle cx="0.896903" cy="0.896903" r="0.896903" transform="matrix(4.37114e-08 1 1 -4.37114e-08 446.466 112.181)" fill="#4A49A3"/>
<circle cx="0.896903" cy="0.896903" r="0.896903" transform="matrix(4.37114e-08 1 1 -4.37114e-08 374.916 112.181)" fill="#4A49A3"/>
<circle cx="0.896903" cy="0.896903" r="0.896903" transform="matrix(4.37114e-08 1 1 -4.37114e-08 395.359 112.181)" fill="#4A49A3"/>
<circle cx="0.896903" cy="0.896903" r="0.896903" transform="matrix(4.37114e-08 1 1 -4.37114e-08 415.802 112.181)" fill="#4A49A3"/>
<circle cx="0.896903" cy="0.896903" r="0.896903" transform="matrix(4.37114e-08 1 1 -4.37114e-08 436.243 112.181)" fill="#4A49A3"/>
<circle cx="0.896903" cy="0.896903" r="0.896903" transform="matrix(4.37114e-08 1 1 -4.37114e-08 456.686 112.181)" fill="#4A49A3"/>
<circle cx="0.896903" cy="0.896903" r="0.896903" transform="matrix(4.37114e-08 1 1 -4.37114e-08 385.139 173.509)" fill="#4A49A3"/>
<circle cx="0.896903" cy="0.896903" r="0.896903" transform="matrix(4.37114e-08 1 1 -4.37114e-08 405.579 173.509)" fill="#4A49A3"/>
<circle cx="0.896903" cy="0.896903" r="0.896903" transform="matrix(4.37114e-08 1 1 -4.37114e-08 426.023 173.509)" fill="#4A49A3"/>
<circle cx="0.896903" cy="0.896903" r="0.896903" transform="matrix(4.37114e-08 1 1 -4.37114e-08 446.466 173.509)" fill="#4A49A3"/>
<circle cx="0.896903" cy="0.896903" r="0.896903" transform="matrix(4.37114e-08 1 1 -4.37114e-08 374.919 173.509)" fill="#4A49A3"/>
<circle cx="0.896903" cy="0.896903" r="0.896903" transform="matrix(4.37114e-08 1 1 -4.37114e-08 395.359 173.509)" fill="#4A49A3"/>
<circle cx="0.896903" cy="0.896903" r="0.896903" transform="matrix(4.37114e-08 1 1 -4.37114e-08 415.802 173.509)" fill="#4A49A3"/>
<circle cx="0.896903" cy="0.896903" r="0.896903" transform="matrix(4.37114e-08 1 1 -4.37114e-08 436.243 173.509)" fill="#4A49A3"/>
<circle cx="0.896903" cy="0.896903" r="0.896903" transform="matrix(4.37114e-08 1 1 -4.37114e-08 456.686 173.509)" fill="#4A49A3"/>
<circle cx="0.896903" cy="0.896903" r="0.896903" transform="matrix(4.37114e-08 1 1 -4.37114e-08 385.139 122.403)" fill="#4A49A3"/>
<circle cx="0.896903" cy="0.896903" r="0.896903" transform="matrix(4.37114e-08 1 1 -4.37114e-08 405.579 122.403)" fill="#4A49A3"/>
<circle cx="0.896903" cy="0.896903" r="0.896903" transform="matrix(4.37114e-08 1 1 -4.37114e-08 426.023 122.403)" fill="#4A49A3"/>
<circle cx="0.896903" cy="0.896903" r="0.896903" transform="matrix(4.37114e-08 1 1 -4.37114e-08 446.466 122.403)" fill="#4A49A3"/>
<circle cx="0.896903" cy="0.896903" r="0.896903" transform="matrix(4.37114e-08 1 1 -4.37114e-08 374.919 122.403)" fill="#4A49A3"/>
<circle cx="0.896903" cy="0.896903" r="0.896903" transform="matrix(4.37114e-08 1 1 -4.37114e-08 395.359 122.403)" fill="#4A49A3"/>
<circle cx="0.896903" cy="0.896903" r="0.896903" transform="matrix(4.37114e-08 1 1 -4.37114e-08 415.802 122.403)" fill="#4A49A3"/>
<circle cx="0.896903" cy="0.896903" r="0.896903" transform="matrix(4.37114e-08 1 1 -4.37114e-08 436.243 122.403)" fill="#4A49A3"/>
<circle cx="0.896903" cy="0.896903" r="0.896903" transform="matrix(4.37114e-08 1 1 -4.37114e-08 456.686 122.403)" fill="#4A49A3"/>
<circle cx="0.896903" cy="0.896903" r="0.896903" transform="matrix(4.37114e-08 1 1 -4.37114e-08 465.69 132.625)" fill="#4A49A3"/>
<circle cx="0.896903" cy="0.896903" r="0.896903" transform="matrix(4.37114e-08 1 1 -4.37114e-08 465.69 142.844)" fill="#4A49A3"/>
<circle cx="0.896903" cy="0.896903" r="0.896903" transform="matrix(4.37114e-08 1 1 -4.37114e-08 465.69 91.7405)" fill="#4A49A3"/>
<circle cx="0.896903" cy="0.896903" r="0.896903" transform="matrix(4.37114e-08 1 1 -4.37114e-08 465.69 153.067)" fill="#4A49A3"/>
<circle cx="0.896903" cy="0.896903" r="0.896903" transform="matrix(4.37114e-08 1 1 -4.37114e-08 465.69 101.961)" fill="#4A49A3"/>
<circle cx="0.896903" cy="0.896903" r="0.896903" transform="matrix(4.37114e-08 1 1 -4.37114e-08 465.69 163.287)" fill="#4A49A3"/>
<circle cx="0.896903" cy="0.896903" r="0.896903" transform="matrix(4.37114e-08 1 1 -4.37114e-08 465.69 112.181)" fill="#4A49A3"/>
<circle cx="0.896903" cy="0.896903" r="0.896903" transform="matrix(4.37114e-08 1 1 -4.37114e-08 465.69 173.509)" fill="#4A49A3"/>
<circle cx="0.896903" cy="0.896903" r="0.896903" transform="matrix(4.37114e-08 1 1 -4.37114e-08 465.69 122.403)" fill="#4A49A3"/>
</g>
<circle cx="420.872" cy="240" r="45.6284" stroke="#D1F960"/>
<mask id="mask5_1_13229" style="mask-type:alpha" maskUnits="userSpaceOnUse" x="375" y="194" width="92" height="92">
<circle cx="420.872" cy="240" r="45.2149" fill="#D9D9D9"/>
</mask>
<g mask="url(#mask5_1_13229)">
<circle cx="0.896903" cy="0.896903" r="0.896903" transform="matrix(4.37114e-08 1 1 -4.37114e-08 385.139 239.497)" fill="#4A49A3"/>
<circle cx="0.896903" cy="0.896903" r="0.896903" transform="matrix(4.37114e-08 1 1 -4.37114e-08 405.579 239.497)" fill="#4A49A3"/>
<circle cx="0.896903" cy="0.896903" r="0.896903" transform="matrix(4.37114e-08 1 1 -4.37114e-08 426.023 239.497)" fill="#4A49A3"/>
<circle cx="0.896903" cy="0.896903" r="0.896903" transform="matrix(4.37114e-08 1 1 -4.37114e-08 446.466 239.497)" fill="#4A49A3"/>
<circle cx="0.896903" cy="0.896903" r="0.896903" transform="matrix(4.37114e-08 1 1 -4.37114e-08 374.919 239.497)" fill="#4A49A3"/>
<circle cx="0.896903" cy="0.896903" r="0.896903" transform="matrix(4.37114e-08 1 1 -4.37114e-08 395.359 239.497)" fill="#4A49A3"/>
<circle cx="0.896903" cy="0.896903" r="0.896903" transform="matrix(4.37114e-08 1 1 -4.37114e-08 415.802 239.497)" fill="#4A49A3"/>
<circle cx="0.896903" cy="0.896903" r="0.896903" transform="matrix(4.37114e-08 1 1 -4.37114e-08 436.243 239.497)" fill="#4A49A3"/>
<circle cx="0.896903" cy="0.896903" r="0.896903" transform="matrix(4.37114e-08 1 1 -4.37114e-08 456.686 239.497)" fill="#4A49A3"/>
<circle cx="0.896903" cy="0.896903" r="0.896903" transform="matrix(4.37114e-08 1 1 -4.37114e-08 385.139 249.717)" fill="#4A49A3"/>
<circle cx="0.896903" cy="0.896903" r="0.896903" transform="matrix(4.37114e-08 1 1 -4.37114e-08 405.579 249.717)" fill="#4A49A3"/>
<circle cx="0.896903" cy="0.896903" r="0.896903" transform="matrix(4.37114e-08 1 1 -4.37114e-08 426.023 249.717)" fill="#4A49A3"/>
<circle cx="0.896903" cy="0.896903" r="0.896903" transform="matrix(4.37114e-08 1 1 -4.37114e-08 446.466 249.717)" fill="#4A49A3"/>
<circle cx="0.896903" cy="0.896903" r="0.896903" transform="matrix(4.37114e-08 1 1 -4.37114e-08 374.916 249.717)" fill="#4A49A3"/>
<circle cx="0.896903" cy="0.896903" r="0.896903" transform="matrix(4.37114e-08 1 1 -4.37114e-08 395.359 249.717)" fill="#4A49A3"/>
<circle cx="0.896903" cy="0.896903" r="0.896903" transform="matrix(4.37114e-08 1 1 -4.37114e-08 415.802 249.717)" fill="#4A49A3"/>
<circle cx="0.896903" cy="0.896903" r="0.896903" transform="matrix(4.37114e-08 1 1 -4.37114e-08 436.243 249.717)" fill="#4A49A3"/>
<circle cx="0.896903" cy="0.896903" r="0.896903" transform="matrix(4.37114e-08 1 1 -4.37114e-08 456.686 249.717)" fill="#4A49A3"/>
<circle cx="0.896903" cy="0.896903" r="0.896903" transform="matrix(4.37114e-08 1 1 -4.37114e-08 385.139 198.613)" fill="#4A49A3"/>
<circle cx="0.896903" cy="0.896903" r="0.896903" transform="matrix(4.37114e-08 1 1 -4.37114e-08 405.579 198.613)" fill="#4A49A3"/>
<circle cx="0.896903" cy="0.896903" r="0.896903" transform="matrix(4.37114e-08 1 1 -4.37114e-08 426.023 198.613)" fill="#4A49A3"/>
<circle cx="0.896903" cy="0.896903" r="0.896903" transform="matrix(4.37114e-08 1 1 -4.37114e-08 446.466 198.613)" fill="#4A49A3"/>
<circle cx="0.896903" cy="0.896903" r="0.896903" transform="matrix(4.37114e-08 1 1 -4.37114e-08 374.916 198.613)" fill="#4A49A3"/>
<circle cx="0.896903" cy="0.896903" r="0.896903" transform="matrix(4.37114e-08 1 1 -4.37114e-08 395.359 198.613)" fill="#4A49A3"/>
<circle cx="0.896903" cy="0.896903" r="0.896903" transform="matrix(4.37114e-08 1 1 -4.37114e-08 415.802 198.613)" fill="#4A49A3"/>
<circle cx="0.896903" cy="0.896903" r="0.896903" transform="matrix(4.37114e-08 1 1 -4.37114e-08 436.243 198.613)" fill="#4A49A3"/>
<circle cx="0.896903" cy="0.896903" r="0.896903" transform="matrix(4.37114e-08 1 1 -4.37114e-08 456.686 198.613)" fill="#4A49A3"/>
<circle cx="0.896903" cy="0.896903" r="0.896903" transform="matrix(4.37114e-08 1 1 -4.37114e-08 385.139 259.938)" fill="#4A49A3"/>
<circle cx="0.896903" cy="0.896903" r="0.896903" transform="matrix(4.37114e-08 1 1 -4.37114e-08 405.579 259.938)" fill="#4A49A3"/>
<circle cx="0.896903" cy="0.896903" r="0.896903" transform="matrix(4.37114e-08 1 1 -4.37114e-08 426.023 259.938)" fill="#4A49A3"/>
<circle cx="0.896903" cy="0.896903" r="0.896903" transform="matrix(4.37114e-08 1 1 -4.37114e-08 446.466 259.938)" fill="#4A49A3"/>
<circle cx="0.896903" cy="0.896903" r="0.896903" transform="matrix(4.37114e-08 1 1 -4.37114e-08 374.919 259.938)" fill="#4A49A3"/>
<circle cx="0.896903" cy="0.896903" r="0.896903" transform="matrix(4.37114e-08 1 1 -4.37114e-08 395.359 259.938)" fill="#4A49A3"/>
<circle cx="0.896903" cy="0.896903" r="0.896903" transform="matrix(4.37114e-08 1 1 -4.37114e-08 415.802 259.938)" fill="#4A49A3"/>
<circle cx="0.896903" cy="0.896903" r="0.896903" transform="matrix(4.37114e-08 1 1 -4.37114e-08 436.243 259.938)" fill="#4A49A3"/>
<circle cx="0.896903" cy="0.896903" r="0.896903" transform="matrix(4.37114e-08 1 1 -4.37114e-08 456.686 259.938)" fill="#4A49A3"/>
<circle cx="0.896903" cy="0.896903" r="0.896903" transform="matrix(4.37114e-08 1 1 -4.37114e-08 385.139 208.833)" fill="#4A49A3"/>
<circle cx="0.896903" cy="0.896903" r="0.896903" transform="matrix(4.37114e-08 1 1 -4.37114e-08 405.579 208.833)" fill="#4A49A3"/>
<circle cx="0.896903" cy="0.896903" r="0.896903" transform="matrix(4.37114e-08 1 1 -4.37114e-08 426.023 208.833)" fill="#4A49A3"/>
<circle cx="0.896903" cy="0.896903" r="0.896903" transform="matrix(4.37114e-08 1 1 -4.37114e-08 446.466 208.833)" fill="#4A49A3"/>
<circle cx="0.896903" cy="0.896903" r="0.896903" transform="matrix(4.37114e-08 1 1 -4.37114e-08 374.919 208.833)" fill="#4A49A3"/>
<circle cx="0.896903" cy="0.896903" r="0.896903" transform="matrix(4.37114e-08 1 1 -4.37114e-08 395.359 208.833)" fill="#4A49A3"/>
<circle cx="0.896903" cy="0.896903" r="0.896903" transform="matrix(4.37114e-08 1 1 -4.37114e-08 415.802 208.833)" fill="#4A49A3"/>
<circle cx="0.896903" cy="0.896903" r="0.896903" transform="matrix(4.37114e-08 1 1 -4.37114e-08 436.243 208.833)" fill="#4A49A3"/>
<circle cx="0.896903" cy="0.896903" r="0.896903" transform="matrix(4.37114e-08 1 1 -4.37114e-08 456.686 208.833)" fill="#4A49A3"/>
<circle cx="0.896903" cy="0.896903" r="0.896903" transform="matrix(4.37114e-08 1 1 -4.37114e-08 385.139 270.159)" fill="#4A49A3"/>
<circle cx="0.896903" cy="0.896903" r="0.896903" transform="matrix(4.37114e-08 1 1 -4.37114e-08 405.579 270.159)" fill="#4A49A3"/>
<circle cx="0.896903" cy="0.896903" r="0.896903" transform="matrix(4.37114e-08 1 1 -4.37114e-08 426.023 270.159)" fill="#4A49A3"/>
<circle cx="0.896903" cy="0.896903" r="0.896903" transform="matrix(4.37114e-08 1 1 -4.37114e-08 446.466 270.16)" fill="#4A49A3"/>
<circle cx="0.896903" cy="0.896903" r="0.896903" transform="matrix(4.37114e-08 1 1 -4.37114e-08 374.916 270.159)" fill="#4A49A3"/>
<circle cx="0.896903" cy="0.896903" r="0.896903" transform="matrix(4.37114e-08 1 1 -4.37114e-08 395.359 270.159)" fill="#4A49A3"/>
<circle cx="0.896903" cy="0.896903" r="0.896903" transform="matrix(4.37114e-08 1 1 -4.37114e-08 415.802 270.159)" fill="#4A49A3"/>
<circle cx="0.896903" cy="0.896903" r="0.896903" transform="matrix(4.37114e-08 1 1 -4.37114e-08 436.243 270.159)" fill="#4A49A3"/>
<circle cx="0.896903" cy="0.896903" r="0.896903" transform="matrix(4.37114e-08 1 1 -4.37114e-08 456.686 270.16)" fill="#4A49A3"/>
<circle cx="0.896903" cy="0.896903" r="0.896903" transform="matrix(4.37114e-08 1 1 -4.37114e-08 385.139 219.053)" fill="#4A49A3"/>
<circle cx="0.896903" cy="0.896903" r="0.896903" transform="matrix(4.37114e-08 1 1 -4.37114e-08 405.579 219.053)" fill="#4A49A3"/>
<circle cx="0.896903" cy="0.896903" r="0.896903" transform="matrix(4.37114e-08 1 1 -4.37114e-08 426.023 219.053)" fill="#4A49A3"/>
<circle cx="0.896903" cy="0.896903" r="0.896903" transform="matrix(4.37114e-08 1 1 -4.37114e-08 446.466 219.053)" fill="#4A49A3"/>
<circle cx="0.896903" cy="0.896903" r="0.896903" transform="matrix(4.37114e-08 1 1 -4.37114e-08 374.916 219.053)" fill="#4A49A3"/>
<circle cx="0.896903" cy="0.896903" r="0.896903" transform="matrix(4.37114e-08 1 1 -4.37114e-08 395.359 219.053)" fill="#4A49A3"/>
<circle cx="0.896903" cy="0.896903" r="0.896903" transform="matrix(4.37114e-08 1 1 -4.37114e-08 415.802 219.053)" fill="#4A49A3"/>
<circle cx="0.896903" cy="0.896903" r="0.896903" transform="matrix(4.37114e-08 1 1 -4.37114e-08 436.243 219.053)" fill="#4A49A3"/>
<circle cx="0.896903" cy="0.896903" r="0.896903" transform="matrix(4.37114e-08 1 1 -4.37114e-08 456.686 219.053)" fill="#4A49A3"/>
<circle cx="0.896903" cy="0.896903" r="0.896903" transform="matrix(4.37114e-08 1 1 -4.37114e-08 385.139 280.381)" fill="#4A49A3"/>
<circle cx="0.896903" cy="0.896903" r="0.896903" transform="matrix(4.37114e-08 1 1 -4.37114e-08 405.579 280.381)" fill="#4A49A3"/>
<circle cx="0.896903" cy="0.896903" r="0.896903" transform="matrix(4.37114e-08 1 1 -4.37114e-08 426.023 280.381)" fill="#4A49A3"/>
<circle cx="0.896903" cy="0.896903" r="0.896903" transform="matrix(4.37114e-08 1 1 -4.37114e-08 446.466 280.381)" fill="#4A49A3"/>
<circle cx="0.896903" cy="0.896903" r="0.896903" transform="matrix(4.37114e-08 1 1 -4.37114e-08 374.919 280.381)" fill="#4A49A3"/>
<circle cx="0.896903" cy="0.896903" r="0.896903" transform="matrix(4.37114e-08 1 1 -4.37114e-08 395.359 280.381)" fill="#4A49A3"/>
<circle cx="0.896903" cy="0.896903" r="0.896903" transform="matrix(4.37114e-08 1 1 -4.37114e-08 415.802 280.381)" fill="#4A49A3"/>
<circle cx="0.896903" cy="0.896903" r="0.896903" transform="matrix(4.37114e-08 1 1 -4.37114e-08 436.243 280.381)" fill="#4A49A3"/>
<circle cx="0.896903" cy="0.896903" r="0.896903" transform="matrix(4.37114e-08 1 1 -4.37114e-08 456.686 280.381)" fill="#4A49A3"/>
<circle cx="0.896903" cy="0.896903" r="0.896903" transform="matrix(4.37114e-08 1 1 -4.37114e-08 385.139 229.275)" fill="#4A49A3"/>
<circle cx="0.896903" cy="0.896903" r="0.896903" transform="matrix(4.37114e-08 1 1 -4.37114e-08 405.579 229.275)" fill="#4A49A3"/>
<circle cx="0.896903" cy="0.896903" r="0.896903" transform="matrix(4.37114e-08 1 1 -4.37114e-08 426.023 229.275)" fill="#4A49A3"/>
<circle cx="0.896903" cy="0.896903" r="0.896903" transform="matrix(4.37114e-08 1 1 -4.37114e-08 446.466 229.275)" fill="#4A49A3"/>
<circle cx="0.896903" cy="0.896903" r="0.896903" transform="matrix(4.37114e-08 1 1 -4.37114e-08 374.919 229.275)" fill="#4A49A3"/>
<circle cx="0.896903" cy="0.896903" r="0.896903" transform="matrix(4.37114e-08 1 1 -4.37114e-08 395.359 229.275)" fill="#4A49A3"/>
<circle cx="0.896903" cy="0.896903" r="0.896903" transform="matrix(4.37114e-08 1 1 -4.37114e-08 415.802 229.275)" fill="#4A49A3"/>
<circle cx="0.896903" cy="0.896903" r="0.896903" transform="matrix(4.37114e-08 1 1 -4.37114e-08 436.243 229.275)" fill="#4A49A3"/>
<circle cx="0.896903" cy="0.896903" r="0.896903" transform="matrix(4.37114e-08 1 1 -4.37114e-08 456.686 229.275)" fill="#4A49A3"/>
<circle cx="0.896903" cy="0.896903" r="0.896903" transform="matrix(4.37114e-08 1 1 -4.37114e-08 465.69 239.497)" fill="#4A49A3"/>
<circle cx="0.896903" cy="0.896903" r="0.896903" transform="matrix(4.37114e-08 1 1 -4.37114e-08 465.69 249.717)" fill="#4A49A3"/>
<circle cx="0.896903" cy="0.896903" r="0.896903" transform="matrix(4.37114e-08 1 1 -4.37114e-08 465.69 198.613)" fill="#4A49A3"/>
<circle cx="0.896903" cy="0.896903" r="0.896903" transform="matrix(4.37114e-08 1 1 -4.37114e-08 465.69 259.939)" fill="#4A49A3"/>
<circle cx="0.896903" cy="0.896903" r="0.896903" transform="matrix(4.37114e-08 1 1 -4.37114e-08 465.69 208.833)" fill="#4A49A3"/>
<circle cx="0.896903" cy="0.896903" r="0.896903" transform="matrix(4.37114e-08 1 1 -4.37114e-08 465.69 270.159)" fill="#4A49A3"/>
<circle cx="0.896903" cy="0.896903" r="0.896903" transform="matrix(4.37114e-08 1 1 -4.37114e-08 465.69 219.053)" fill="#4A49A3"/>
<circle cx="0.896903" cy="0.896903" r="0.896903" transform="matrix(4.37114e-08 1 1 -4.37114e-08 465.69 280.381)" fill="#4A49A3"/>
<circle cx="0.896903" cy="0.896903" r="0.896903" transform="matrix(4.37114e-08 1 1 -4.37114e-08 465.69 229.275)" fill="#4A49A3"/>
</g>
<circle cx="420.872" cy="346.872" r="45.6284" stroke="#D1F960"/>
<mask id="mask6_1_13229" style="mask-type:alpha" maskUnits="userSpaceOnUse" x="375" y="301" width="92" height="92">
<circle cx="420.872" cy="346.872" r="45.2149" fill="#D9D9D9"/>
</mask>
<g mask="url(#mask6_1_13229)">
<circle cx="0.896903" cy="0.896903" r="0.896903" transform="matrix(4.37114e-08 1 1 -4.37114e-08 385.139 346.369)" fill="#4A49A3"/>
<circle cx="0.896903" cy="0.896903" r="0.896903" transform="matrix(4.37114e-08 1 1 -4.37114e-08 405.579 346.369)" fill="#4A49A3"/>
<circle cx="0.896903" cy="0.896903" r="0.896903" transform="matrix(4.37114e-08 1 1 -4.37114e-08 426.022 346.369)" fill="#4A49A3"/>
<circle cx="0.896903" cy="0.896903" r="0.896903" transform="matrix(4.37114e-08 1 1 -4.37114e-08 446.465 346.369)" fill="#4A49A3"/>
<circle cx="0.896903" cy="0.896903" r="0.896903" transform="matrix(4.37114e-08 1 1 -4.37114e-08 374.919 346.369)" fill="#4A49A3"/>
<circle cx="0.896903" cy="0.896903" r="0.896903" transform="matrix(4.37114e-08 1 1 -4.37114e-08 395.359 346.369)" fill="#4A49A3"/>
<circle cx="0.896903" cy="0.896903" r="0.896903" transform="matrix(4.37114e-08 1 1 -4.37114e-08 415.802 346.369)" fill="#4A49A3"/>
<circle cx="0.896903" cy="0.896903" r="0.896903" transform="matrix(4.37114e-08 1 1 -4.37114e-08 436.242 346.369)" fill="#4A49A3"/>
<circle cx="0.896903" cy="0.896903" r="0.896903" transform="matrix(4.37114e-08 1 1 -4.37114e-08 456.685 346.369)" fill="#4A49A3"/>
<circle cx="0.896903" cy="0.896903" r="0.896903" transform="matrix(4.37114e-08 1 1 -4.37114e-08 385.139 356.589)" fill="#4A49A3"/>
<circle cx="0.896903" cy="0.896903" r="0.896903" transform="matrix(4.37114e-08 1 1 -4.37114e-08 405.579 356.589)" fill="#4A49A3"/>
<circle cx="0.896903" cy="0.896903" r="0.896903" transform="matrix(4.37114e-08 1 1 -4.37114e-08 426.022 356.589)" fill="#4A49A3"/>
<circle cx="0.896903" cy="0.896903" r="0.896903" transform="matrix(4.37114e-08 1 1 -4.37114e-08 446.465 356.589)" fill="#4A49A3"/>
<circle cx="0.896903" cy="0.896903" r="0.896903" transform="matrix(4.37114e-08 1 1 -4.37114e-08 374.916 356.589)" fill="#4A49A3"/>
<circle cx="0.896903" cy="0.896903" r="0.896903" transform="matrix(4.37114e-08 1 1 -4.37114e-08 395.359 356.589)" fill="#4A49A3"/>
<circle cx="0.896903" cy="0.896903" r="0.896903" transform="matrix(4.37114e-08 1 1 -4.37114e-08 415.802 356.589)" fill="#4A49A3"/>
<circle cx="0.896903" cy="0.896903" r="0.896903" transform="matrix(4.37114e-08 1 1 -4.37114e-08 436.242 356.589)" fill="#4A49A3"/>
<circle cx="0.896903" cy="0.896903" r="0.896903" transform="matrix(4.37114e-08 1 1 -4.37114e-08 456.685 356.589)" fill="#4A49A3"/>
<circle cx="0.896903" cy="0.896903" r="0.896903" transform="matrix(4.37114e-08 1 1 -4.37114e-08 385.139 305.485)" fill="#4A49A3"/>
<circle cx="0.896903" cy="0.896903" r="0.896903" transform="matrix(4.37114e-08 1 1 -4.37114e-08 405.579 305.485)" fill="#4A49A3"/>
<circle cx="0.896903" cy="0.896903" r="0.896903" transform="matrix(4.37114e-08 1 1 -4.37114e-08 426.023 305.485)" fill="#4A49A3"/>
<circle cx="0.896903" cy="0.896903" r="0.896903" transform="matrix(4.37114e-08 1 1 -4.37114e-08 446.465 305.485)" fill="#4A49A3"/>
<circle cx="0.896903" cy="0.896903" r="0.896903" transform="matrix(4.37114e-08 1 1 -4.37114e-08 374.916 305.485)" fill="#4A49A3"/>
<circle cx="0.896903" cy="0.896903" r="0.896903" transform="matrix(4.37114e-08 1 1 -4.37114e-08 395.359 305.485)" fill="#4A49A3"/>
<circle cx="0.896903" cy="0.896903" r="0.896903" transform="matrix(4.37114e-08 1 1 -4.37114e-08 415.802 305.485)" fill="#4A49A3"/>
<circle cx="0.896903" cy="0.896903" r="0.896903" transform="matrix(4.37114e-08 1 1 -4.37114e-08 436.242 305.485)" fill="#4A49A3"/>
<circle cx="0.896903" cy="0.896903" r="0.896903" transform="matrix(4.37114e-08 1 1 -4.37114e-08 456.685 305.485)" fill="#4A49A3"/>
<circle cx="0.896903" cy="0.896903" r="0.896903" transform="matrix(4.37114e-08 1 1 -4.37114e-08 385.139 366.811)" fill="#4A49A3"/>
<circle cx="0.896903" cy="0.896903" r="0.896903" transform="matrix(4.37114e-08 1 1 -4.37114e-08 405.579 366.811)" fill="#4A49A3"/>
<circle cx="0.896903" cy="0.896903" r="0.896903" transform="matrix(4.37114e-08 1 1 -4.37114e-08 426.022 366.811)" fill="#4A49A3"/>
<circle cx="0.896903" cy="0.896903" r="0.896903" transform="matrix(4.37114e-08 1 1 -4.37114e-08 446.465 366.811)" fill="#4A49A3"/>
<circle cx="0.896903" cy="0.896903" r="0.896903" transform="matrix(4.37114e-08 1 1 -4.37114e-08 374.919 366.811)" fill="#4A49A3"/>
<circle cx="0.896903" cy="0.896903" r="0.896903" transform="matrix(4.37114e-08 1 1 -4.37114e-08 395.359 366.811)" fill="#4A49A3"/>
<circle cx="0.896903" cy="0.896903" r="0.896903" transform="matrix(4.37114e-08 1 1 -4.37114e-08 415.802 366.811)" fill="#4A49A3"/>
<circle cx="0.896903" cy="0.896903" r="0.896903" transform="matrix(4.37114e-08 1 1 -4.37114e-08 436.242 366.811)" fill="#4A49A3"/>
<circle cx="0.896903" cy="0.896903" r="0.896903" transform="matrix(4.37114e-08 1 1 -4.37114e-08 456.685 366.811)" fill="#4A49A3"/>
<circle cx="0.896903" cy="0.896903" r="0.896903" transform="matrix(4.37114e-08 1 1 -4.37114e-08 385.139 315.706)" fill="#4A49A3"/>
<circle cx="0.896903" cy="0.896903" r="0.896903" transform="matrix(4.37114e-08 1 1 -4.37114e-08 405.579 315.706)" fill="#4A49A3"/>
<circle cx="0.896903" cy="0.896903" r="0.896903" transform="matrix(4.37114e-08 1 1 -4.37114e-08 426.023 315.706)" fill="#4A49A3"/>
<circle cx="0.896903" cy="0.896903" r="0.896903" transform="matrix(4.37114e-08 1 1 -4.37114e-08 446.465 315.706)" fill="#4A49A3"/>
<circle cx="0.896903" cy="0.896903" r="0.896903" transform="matrix(4.37114e-08 1 1 -4.37114e-08 374.919 315.706)" fill="#4A49A3"/>
<circle cx="0.896903" cy="0.896903" r="0.896903" transform="matrix(4.37114e-08 1 1 -4.37114e-08 395.359 315.706)" fill="#4A49A3"/>
<circle cx="0.896903" cy="0.896903" r="0.896903" transform="matrix(4.37114e-08 1 1 -4.37114e-08 415.802 315.706)" fill="#4A49A3"/>
<circle cx="0.896903" cy="0.896903" r="0.896903" transform="matrix(4.37114e-08 1 1 -4.37114e-08 436.242 315.706)" fill="#4A49A3"/>
<circle cx="0.896903" cy="0.896903" r="0.896903" transform="matrix(4.37114e-08 1 1 -4.37114e-08 456.685 315.706)" fill="#4A49A3"/>
<circle cx="0.896903" cy="0.896903" r="0.896903" transform="matrix(4.37114e-08 1 1 -4.37114e-08 385.139 377.031)" fill="#4A49A3"/>
<circle cx="0.896903" cy="0.896903" r="0.896903" transform="matrix(4.37114e-08 1 1 -4.37114e-08 405.579 377.031)" fill="#4A49A3"/>
<circle cx="0.896903" cy="0.896903" r="0.896903" transform="matrix(4.37114e-08 1 1 -4.37114e-08 426.022 377.031)" fill="#4A49A3"/>
<circle cx="0.896903" cy="0.896903" r="0.896903" transform="matrix(4.37114e-08 1 1 -4.37114e-08 446.465 377.032)" fill="#4A49A3"/>
<circle cx="0.896903" cy="0.896903" r="0.896903" transform="matrix(4.37114e-08 1 1 -4.37114e-08 374.916 377.031)" fill="#4A49A3"/>
<circle cx="0.896903" cy="0.896903" r="0.896903" transform="matrix(4.37114e-08 1 1 -4.37114e-08 395.359 377.031)" fill="#4A49A3"/>
<circle cx="0.896903" cy="0.896903" r="0.896903" transform="matrix(4.37114e-08 1 1 -4.37114e-08 415.802 377.031)" fill="#4A49A3"/>
<circle cx="0.896903" cy="0.896903" r="0.896903" transform="matrix(4.37114e-08 1 1 -4.37114e-08 436.242 377.031)" fill="#4A49A3"/>
<circle cx="0.896903" cy="0.896903" r="0.896903" transform="matrix(4.37114e-08 1 1 -4.37114e-08 456.685 377.032)" fill="#4A49A3"/>
<circle cx="0.896903" cy="0.896903" r="0.896903" transform="matrix(4.37114e-08 1 1 -4.37114e-08 385.139 325.926)" fill="#4A49A3"/>
<circle cx="0.896903" cy="0.896903" r="0.896903" transform="matrix(4.37114e-08 1 1 -4.37114e-08 405.579 325.926)" fill="#4A49A3"/>
<circle cx="0.896903" cy="0.896903" r="0.896903" transform="matrix(4.37114e-08 1 1 -4.37114e-08 426.023 325.926)" fill="#4A49A3"/>
<circle cx="0.896903" cy="0.896903" r="0.896903" transform="matrix(4.37114e-08 1 1 -4.37114e-08 446.465 325.926)" fill="#4A49A3"/>
<circle cx="0.896903" cy="0.896903" r="0.896903" transform="matrix(4.37114e-08 1 1 -4.37114e-08 374.916 325.926)" fill="#4A49A3"/>
<circle cx="0.896903" cy="0.896903" r="0.896903" transform="matrix(4.37114e-08 1 1 -4.37114e-08 395.359 325.926)" fill="#4A49A3"/>
<circle cx="0.896903" cy="0.896903" r="0.896903" transform="matrix(4.37114e-08 1 1 -4.37114e-08 415.802 325.926)" fill="#4A49A3"/>
<circle cx="0.896903" cy="0.896903" r="0.896903" transform="matrix(4.37114e-08 1 1 -4.37114e-08 436.242 325.926)" fill="#4A49A3"/>
<circle cx="0.896903" cy="0.896903" r="0.896903" transform="matrix(4.37114e-08 1 1 -4.37114e-08 456.685 325.926)" fill="#4A49A3"/>
<circle cx="0.896903" cy="0.896903" r="0.896903" transform="matrix(4.37114e-08 1 1 -4.37114e-08 385.139 387.253)" fill="#4A49A3"/>
<circle cx="0.896903" cy="0.896903" r="0.896903" transform="matrix(4.37114e-08 1 1 -4.37114e-08 405.579 387.253)" fill="#4A49A3"/>
<circle cx="0.896903" cy="0.896903" r="0.896903" transform="matrix(4.37114e-08 1 1 -4.37114e-08 426.023 387.253)" fill="#4A49A3"/>
<circle cx="0.896903" cy="0.896903" r="0.896903" transform="matrix(4.37114e-08 1 1 -4.37114e-08 446.465 387.253)" fill="#4A49A3"/>
<circle cx="0.896903" cy="0.896903" r="0.896903" transform="matrix(4.37114e-08 1 1 -4.37114e-08 374.919 387.253)" fill="#4A49A3"/>
<circle cx="0.896903" cy="0.896903" r="0.896903" transform="matrix(4.37114e-08 1 1 -4.37114e-08 395.359 387.253)" fill="#4A49A3"/>
<circle cx="0.896903" cy="0.896903" r="0.896903" transform="matrix(4.37114e-08 1 1 -4.37114e-08 415.802 387.253)" fill="#4A49A3"/>
<circle cx="0.896903" cy="0.896903" r="0.896903" transform="matrix(4.37114e-08 1 1 -4.37114e-08 436.242 387.253)" fill="#4A49A3"/>
<circle cx="0.896903" cy="0.896903" r="0.896903" transform="matrix(4.37114e-08 1 1 -4.37114e-08 456.685 387.253)" fill="#4A49A3"/>
<circle cx="0.896903" cy="0.896903" r="0.896903" transform="matrix(4.37114e-08 1 1 -4.37114e-08 385.139 336.147)" fill="#4A49A3"/>
<circle cx="0.896903" cy="0.896903" r="0.896903" transform="matrix(4.37114e-08 1 1 -4.37114e-08 405.579 336.147)" fill="#4A49A3"/>
<circle cx="0.896903" cy="0.896903" r="0.896903" transform="matrix(4.37114e-08 1 1 -4.37114e-08 426.022 336.147)" fill="#4A49A3"/>
<circle cx="0.896903" cy="0.896903" r="0.896903" transform="matrix(4.37114e-08 1 1 -4.37114e-08 446.465 336.147)" fill="#4A49A3"/>
<circle cx="0.896903" cy="0.896903" r="0.896903" transform="matrix(4.37114e-08 1 1 -4.37114e-08 374.919 336.147)" fill="#4A49A3"/>
<circle cx="0.896903" cy="0.896903" r="0.896903" transform="matrix(4.37114e-08 1 1 -4.37114e-08 395.359 336.147)" fill="#4A49A3"/>
<circle cx="0.896903" cy="0.896903" r="0.896903" transform="matrix(4.37114e-08 1 1 -4.37114e-08 415.802 336.147)" fill="#4A49A3"/>
<circle cx="0.896903" cy="0.896903" r="0.896903" transform="matrix(4.37114e-08 1 1 -4.37114e-08 436.242 336.147)" fill="#4A49A3"/>
<circle cx="0.896903" cy="0.896903" r="0.896903" transform="matrix(4.37114e-08 1 1 -4.37114e-08 456.685 336.147)" fill="#4A49A3"/>
<circle cx="0.896903" cy="0.896903" r="0.896903" transform="matrix(4.37114e-08 1 1 -4.37114e-08 465.69 346.369)" fill="#4A49A3"/>
<circle cx="0.896903" cy="0.896903" r="0.896903" transform="matrix(4.37114e-08 1 1 -4.37114e-08 465.69 356.589)" fill="#4A49A3"/>
<circle cx="0.896903" cy="0.896903" r="0.896903" transform="matrix(4.37114e-08 1 1 -4.37114e-08 465.69 305.485)" fill="#4A49A3"/>
<circle cx="0.896903" cy="0.896903" r="0.896903" transform="matrix(4.37114e-08 1 1 -4.37114e-08 465.69 366.811)" fill="#4A49A3"/>
<circle cx="0.896903" cy="0.896903" r="0.896903" transform="matrix(4.37114e-08 1 1 -4.37114e-08 465.69 315.706)" fill="#4A49A3"/>
<circle cx="0.896903" cy="0.896903" r="0.896903" transform="matrix(4.37114e-08 1 1 -4.37114e-08 465.69 377.031)" fill="#4A49A3"/>
<circle cx="0.896903" cy="0.896903" r="0.896903" transform="matrix(4.37114e-08 1 1 -4.37114e-08 465.69 325.926)" fill="#4A49A3"/>
<circle cx="0.896903" cy="0.896903" r="0.896903" transform="matrix(4.37114e-08 1 1 -4.37114e-08 465.69 387.253)" fill="#4A49A3"/>
<circle cx="0.896903" cy="0.896903" r="0.896903" transform="matrix(4.37114e-08 1 1 -4.37114e-08 465.69 336.147)" fill="#4A49A3"/>
</g>
</svg>
