<svg width="25" height="36" viewBox="0 0 25 36" fill="none" xmlns="http://www.w3.org/2000/svg">
<path d="M17.1878 27.7078C17.5393 27.7078 17.8243 27.9928 17.8243 28.3443C17.8243 28.6959 17.5393 28.9809 17.1878 28.9809L7.00258 28.9809C6.65101 28.9809 6.36601 28.6959 6.36601 28.3443C6.36601 27.9928 6.65101 27.7078 7.00258 27.7078L17.1878 27.7078Z" fill="#6F7BD4"/>
<path d="M15.5963 30.8904C15.9479 30.8904 16.2329 31.1754 16.2329 31.527C16.2329 31.8785 15.9479 32.1635 15.5963 32.1635L8.59402 32.1635C8.24245 32.1635 7.95745 31.8785 7.95745 31.527C7.95745 31.1754 8.24245 30.8904 8.59402 30.8904L15.5963 30.8904Z" fill="#6F7BD4"/>
<path d="M14.0049 34.0735C14.3565 34.0735 14.6415 34.3585 14.6415 34.7101C14.6415 35.0616 14.3565 35.3466 14.0049 35.3466L10.1855 35.3466C9.83389 35.3466 9.54889 35.0616 9.54889 34.7101C9.54889 34.3585 9.83389 34.0735 10.1855 34.0735L14.0049 34.0735Z" fill="#6F7BD4"/>
<path d="M0 10.0296C0 9.68532 0.285004 9.40625 0.636574 9.40625C0.988144 9.40625 1.27315 9.68532 1.27315 10.0296V16.2627C1.27315 16.6069 0.988144 16.886 0.636574 16.886C0.285004 16.886 0 16.6069 0 16.2627V10.0296Z" fill="#6F7BD4"/>
<path d="M22.9167 10.0296C22.9167 9.68532 23.2017 9.40625 23.5533 9.40625C23.9048 9.40625 24.1898 9.68532 24.1898 10.0296V16.2627C24.1898 16.6069 23.9048 16.886 23.5533 16.886C23.2017 16.886 22.9167 16.6069 22.9167 16.2627V10.0296Z" fill="#6F7BD4"/>
<path d="M3.81946 3.98495C3.81946 3.63905 4.10446 3.35864 4.45603 3.35864C4.8076 3.35864 5.09261 3.63905 5.09261 3.98495V12.4401C5.09261 12.786 4.8076 13.0664 4.45603 13.0664C4.10446 13.0664 3.81946 12.786 3.81946 12.4401V3.98495Z" fill="#6F7BD4"/>
<path d="M7.63892 1.91539C7.63892 1.56989 7.92392 1.28979 8.27549 1.28979C8.62706 1.28979 8.91206 1.56989 8.91206 1.91539V9.73538C8.91206 10.0809 8.62706 10.361 8.27549 10.361C7.92392 10.361 7.63892 10.0809 7.63892 9.73538V1.91539Z" fill="#6F7BD4"/>
<path d="M11.4584 1.28989C11.4584 0.938325 11.7434 0.65332 12.0949 0.65332C12.4465 0.65332 12.7315 0.938324 12.7315 1.28989V4.79105C12.7315 5.14262 12.4465 5.42763 12.0949 5.42763C11.7434 5.42763 11.4584 5.14262 11.4584 4.79105V1.28989Z" fill="#6F7BD4"/>
<path d="M15.2778 1.91539C15.2778 1.56989 15.5628 1.28979 15.9143 1.28979C16.2659 1.28979 16.5509 1.56989 16.5509 1.91539V9.73538C16.5509 10.0809 16.2659 10.361 15.9143 10.361C15.5628 10.361 15.2778 10.0809 15.2778 9.73538V1.91539Z" fill="#6F7BD4"/>
<path d="M15.2778 11.9453C15.2778 11.5977 15.5628 11.3159 15.9143 11.3159C16.2659 11.3159 16.5509 11.5977 16.5509 11.9453V24.5321C16.5509 24.8796 16.2659 25.1614 15.9143 25.1614C15.5628 25.1614 15.2778 24.8796 15.2778 24.5321V11.9453Z" fill="#6F7BD4"/>
<path d="M11.4584 7.01191C11.4584 6.66433 11.7434 6.38257 12.0949 6.38257C12.4465 6.38257 12.7315 6.66433 12.7315 7.01191V19.5987C12.7315 19.9463 12.4465 20.2281 12.0949 20.2281C11.7434 20.2281 11.4584 19.9463 11.4584 19.5987V7.01191Z" fill="#6F7BD4"/>
<path d="M11.4584 21.8194C11.4584 21.4679 11.7434 21.1829 12.0949 21.1829C12.4465 21.1829 12.7315 21.4679 12.7315 21.8194V25.3206C12.7315 25.6722 12.4465 25.9572 12.0949 25.9572C11.7434 25.9572 11.4584 25.6722 11.4584 25.3206V21.8194Z" fill="#6F7BD4"/>
<path d="M7.63892 11.9453C7.63892 11.5977 7.92392 11.3159 8.27549 11.3159C8.62706 11.3159 8.91206 11.5977 8.91206 11.9453V24.5321C8.91206 24.8796 8.62706 25.1614 8.27549 25.1614C7.92392 25.1614 7.63892 24.8796 7.63892 24.5321V11.9453Z" fill="#6F7BD4"/>
<path d="M3.81946 14.6464C3.81946 14.3012 4.10446 14.0212 4.45603 14.0212C4.8076 14.0212 5.09261 14.3012 5.09261 14.6464V22.1489C5.09261 22.4942 4.8076 22.7741 4.45603 22.7741C4.10446 22.7741 3.81946 22.4942 3.81946 22.1489V14.6464Z" fill="#6F7BD4"/>
<path d="M19.0972 4.14413C19.0972 3.79823 19.3822 3.51782 19.7338 3.51782C20.0854 3.51782 20.3704 3.79823 20.3704 4.14413V12.5993C20.3704 12.9452 20.0854 13.2256 19.7338 13.2256C19.3822 13.2256 19.0972 12.9452 19.0972 12.5993V4.14413Z" fill="#6F7BD4"/>
<path d="M19.0972 14.8059C19.0972 14.4606 19.3822 14.1807 19.7338 14.1807C20.0854 14.1807 20.3704 14.4606 20.3704 14.8059V22.3083C20.3704 22.6536 20.0854 22.9336 19.7338 22.9336C19.3822 22.9336 19.0972 22.6536 19.0972 22.3083V14.8059Z" fill="#6F7BD4"/>
</svg>
